<?xml version="1.0" standalone="no"?>
<!DOCTYPE svg PUBLIC "-//W3C//DTD SVG 20010904//EN"
 "http://www.w3.org/TR/2001/REC-SVG-20010904/DTD/svg10.dtd">
<svg version="1.0" xmlns="http://www.w3.org/2000/svg"
 width="748.000000pt" height="748.000000pt" viewBox="0 0 748.000000 748.000000"
 preserveAspectRatio="xMidYMid meet">
<metadata>
Created by potrace 1.14, written by Peter Selinger 2001-2017
</metadata>
<g transform="translate(0.000000,748.000000) scale(0.100000,-0.100000)"
fill="#000000" stroke="none">
<path d="M2025 7334 c-88 -52 -170 -100 -182 -107 -13 -6 -120 -68 -239 -137
-119 -69 -234 -135 -255 -147 -20 -12 -95 -55 -166 -96 -146 -85 -421 -243
-565 -326 l-98 -56 3 -974 2 -974 415 -240 c228 -132 429 -248 447 -258 17
-10 123 -71 235 -135 111 -65 213 -123 226 -130 22 -11 17 -16 -97 -83 -66
-39 -123 -71 -126 -71 -4 0 -19 -8 -33 -19 -26 -18 -146 -87 -562 -326 -107
-62 -235 -136 -285 -165 -49 -29 -106 -61 -125 -72 -19 -11 -50 -29 -67 -40
l-33 -20 0 -972 0 -971 58 -33 c92 -52 144 -82 372 -214 474 -274 747 -432
786 -454 22 -12 134 -77 249 -143 114 -67 211 -121 216 -121 4 0 115 62 246
138 317 184 858 497 1225 708 l208 119 2 781 3 782 155 -90 c85 -50 259 -150
385 -223 127 -73 356 -205 510 -294 154 -89 287 -163 295 -164 12 -2 120 57
343 186 138 80 563 326 912 527 231 133 422 244 425 247 3 2 5 441 5 974 l0
970 -65 38 c-36 21 -81 48 -100 58 -61 35 -553 319 -634 367 -43 25 -79 46
-81 46 -3 0 -45 25 -96 55 -50 30 -93 55 -95 55 -3 0 -21 11 -42 23 -20 13
-57 35 -82 49 -25 14 -143 82 -264 152 -208 120 -220 125 -245 113 -20 -11
-383 -219 -598 -343 -18 -11 -168 -98 -335 -194 -166 -96 -310 -179 -319 -185
-10 -5 -31 -18 -48 -27 l-31 -16 0 781 0 782 -57 33 c-67 37 -42 23 -513 295
-201 116 -417 240 -480 277 -63 37 -171 99 -240 139 -69 40 -132 76 -140 81
-84 52 -245 140 -254 139 -6 -1 -83 -43 -171 -95z m296 -350 c63 -37 204 -118
314 -182 583 -336 910 -525 913 -527 3 -2 5 -1093 2 -1327 l0 -46 -112 65
c-62 36 -243 141 -403 233 -159 92 -479 276 -710 410 -231 134 -438 253 -460
265 -22 13 -123 71 -225 130 -102 59 -205 119 -229 133 -25 14 -68 38 -95 55
-28 16 -67 39 -86 49 -130 73 -210 121 -210 127 1 3 56 37 123 75 67 38 203
117 302 174 99 58 198 115 220 127 22 13 139 80 260 150 246 143 267 155 276
155 4 0 58 -30 120 -66z m-1201 -1059 c140 -81 273 -158 295 -170 22 -13 81
-46 130 -75 50 -29 104 -61 121 -70 215 -123 333 -192 349 -204 19 -14 20 -27
20 -695 0 -495 -3 -680 -11 -677 -18 7 -1126 646 -1152 664 l-24 17 1 670 c0
785 -1 697 9 692 4 -3 122 -71 262 -152z m4231 -691 c63 -36 121 -70 129 -75
24 -14 283 -163 615 -354 171 -98 316 -183 322 -189 10 -9 -40 -42 -215 -143
-295 -170 -713 -412 -732 -424 -78 -47 -217 -122 -225 -122 -5 0 -32 14 -60
31 -27 16 -73 43 -101 59 -283 158 -1032 599 -1026 604 4 4 81 49 172 102 91
52 232 133 314 181 82 47 150 86 151 86 1 0 75 43 164 95 90 52 164 95 166 95
1 0 47 27 101 60 55 32 102 59 105 60 3 0 57 -30 120 -66z m-2840 -112 c74
-43 143 -83 154 -90 18 -10 82 -47 360 -207 55 -32 114 -66 131 -75 28 -16
476 -275 744 -430 63 -36 239 -137 390 -224 151 -87 286 -166 300 -175 14 -8
36 -22 50 -29 96 -51 270 -155 270 -160 0 -4 -21 -19 -47 -33 -27 -14 -93 -52
-148 -84 -91 -53 -579 -334 -650 -375 -16 -9 -53 -31 -81 -47 -27 -17 -70 -41
-95 -55 -24 -14 -114 -66 -199 -115 -239 -138 -476 -275 -690 -398 -107 -62
-293 -169 -412 -238 -120 -69 -219 -123 -219 -119 -5 27 -3 2932 2 2932 4 0
67 -35 140 -78z m4077 -1487 l-1 -675 -101 -59 c-55 -32 -290 -168 -521 -301
-231 -133 -457 -264 -503 -291 -45 -27 -84 -49 -87 -49 -3 0 -34 -18 -71 -40
-61 -38 -67 -40 -92 -27 -21 10 -398 227 -482 277 -37 22 -259 150 -300 172
-25 14 -110 63 -190 110 -80 46 -153 89 -163 94 -15 8 12 27 154 110 95 54
195 112 223 127 28 16 61 35 73 43 12 7 37 22 55 32 81 46 826 477 853 493 17
11 37 22 45 26 8 4 65 36 125 71 61 36 126 74 145 85 19 10 71 40 115 66 44
25 92 53 108 61 15 8 80 46 145 84 64 37 135 79 157 91 22 13 99 57 170 99 72
41 133 75 136 76 4 0 7 -304 7 -675z m-4553 -1651 c0 -800 -3 -1454 -8 -1454
-4 0 -62 32 -130 71 -67 40 -142 83 -167 97 -25 14 -101 58 -170 97 -69 40
-141 82 -160 93 -19 11 -134 77 -255 147 -121 70 -237 137 -257 148 -33 18
-38 26 -38 56 -1 51 -1 1437 0 1488 l0 42 118 69 c94 55 750 434 885 511 18
10 63 37 102 59 38 23 72 39 75 36 3 -3 5 -660 5 -1460z m1518 -61 c-1 -351
-2 -656 -3 -678 0 -40 0 -40 -93 -93 -50 -29 -99 -57 -107 -62 -8 -6 -112 -66
-230 -133 -118 -68 -318 -184 -445 -257 -306 -177 -295 -170 -303 -170 -4 0
-7 301 -7 670 0 581 2 671 15 683 8 8 35 26 60 39 95 52 528 302 587 339 34
22 65 39 67 39 5 0 139 76 176 100 14 9 57 33 165 95 28 16 64 37 80 47 17 10
32 18 35 18 3 0 4 -287 3 -637z"/>
</g>
</svg>
