<svg width="32" viewBox="0 0 205 237" fill="none" xmlns="http://www.w3.org/2000/svg">
    <path
        d="M53.4667 236.267V236.133H53.2V236H53.0667V235.867H52.8V235.733H52.5333V235.6H52.2667V235.467H52.1333V235.333H51.8667V235.2H51.6V235.067H51.3333V234.933H51.2V234.8H50.9333V234.667H50.6667V234.533H50.4V234.4H50.2667V234.267H50V234.133H49.7333V234H49.6V233.867H49.3333V233.733H49.0667V233.6H48.8V233.467H48.6667V233.333H48.4V233.2H48.1333V233.067H47.8667V232.933H47.7333V232.8H47.4667V232.667H47.2V232.533H46.9333V232.4H46.8V232.267H46.5333V232.133H46.2667V232H46.1333V231.867H45.8667V231.733H45.6V231.6H45.3333V231.467H45.2V231.333H44.9333V231.2H44.6667V231.067H44.4V230.933H44.2667V230.8H44V230.667H43.7333V230.533H43.4667V230.4H43.3333V230.267H43.0667V230.133H42.8V230H42.6667V229.867H42.4V229.733H42.1333V229.6H41.8667V229.467H41.7333V229.333H41.4667V229.2H41.2V229.067H40.9333V228.933H40.8V228.8H40.5333V228.667H40.2667V228.533H40.1333V228.4H39.8667V228.267H39.6V228.133H39.3333V228H39.2V227.867H38.9333V227.733H38.6667V227.6H38.4V227.467H38.2667V227.333H38V227.2H37.7333V227.067H37.4667V226.933H37.3333V226.8H37.0667V226.667H36.8V226.533H36.6667V226.4H36.4V226.267H36.1333V226.133H35.8667V226H35.7333V225.867H35.4667V225.733H35.2V225.6H34.9333V225.467H34.8V225.333H34.5333V225.2H34.2667V225.067H34V224.933H33.8667V224.8H33.6V224.667H33.3333V224.533H33.2V224.4H32.9333V224.267H32.6667V224.133H32.4V224H32.2667V223.867H32V223.733H31.7333V223.6H31.4667V223.467H31.3333V223.333H31.0667V223.2H30.8V223.067H30.6667V222.933H30.4V222.8H30.1333V222.667H29.8667V222.533H29.7333V222.4H29.4667V222.267H29.2V222.133H28.9333V222H28.8V221.867H28.5333V221.733H28.2667V221.6H28V221.467H27.8667V221.333H27.6V221.2H27.3333V221.067H27.2V220.933H26.9333V220.8H26.6667V220.667H26.4V220.533H26.2667V220.4H26V220.267H25.7333V220.133H25.4667V220H25.3333V219.867H25.0667V219.733H24.8V219.6H24.5333V219.467H24.4V219.333H24.1333V219.2H23.8667V219.067H23.7333V218.933H23.4667V218.8H23.2V218.667H22.9333V218.533H22.8V218.4H22.5333V218.267H22.2667V218.133H22V218H21.8667V217.867H21.6V217.733H21.3333V217.6H21.0667V217.467H20.9333V217.333H20.6667V217.2H20.4V217.067H20.2667V216.933H20V216.8H19.7333V216.667H19.4667V216.533H19.3333V216.4H19.0667V216.267H18.8V216.133H18.5333V216H18.4V215.867H18.1333V215.733H17.8667V215.6H17.7333V215.467H17.4667V215.333H17.2V215.2H16.9333V215.067H16.8V214.933H16.5333V214.8H16.2667V214.667H16V214.533H15.8667V214.4H15.6V214.267H15.3333V214.133H15.0667V214H14.9333V213.867H14.6667V213.733H14.4V213.6H14.2667V213.467H14V213.333H13.7333V213.2H13.4667V213.067H13.3333V212.933H13.0667V212.8H12.8V212.667H12.5333V212.533H12.4V212.4H12.1333V212.267H11.8667V212.133H11.6V212H11.4667V211.867H11.2V211.733H10.9333V211.6H10.8V211.467H10.5333V211.333H10.2667V211.2H10V211.067H9.86667V210.933H9.6V210.8H9.33333V210.667H9.06667V210.533H8.93333V210.4H8.66667V210.267H8.4V210.133H8.26667V210H8V209.867H7.73333V209.733H7.46667V209.6H7.33333V209.467H7.06667V209.333H6.8V209.2H6.53333V209.067H6.4V208.933H6.13333V208.8H5.86667V208.667H5.6V208.533H5.46667V208.4H5.2V208.267H4.93333V208.133H4.8V208H4.53333V207.867H4.26667V207.733H4V207.6H3.86667V207.467H3.6V207.333H3.33333V207.2H3.06667V207.067H2.93333V206.933H2.66667V206.8H2.4V206.667H2.13333V206.533H2V206.4H1.73333V206.267H1.46667V206.133H1.33333V206H1.06667V205.867H0.8V205.733H0.533333V205.6H0.4V205.467H0.133333V205.333H0V143.067H0.133333V142.933H0.266667V142.8H0.533333V142.667H0.8V142.533H1.06667V142.4H1.2V142.267H1.46667V142.133H1.73333V142H2V141.867H2.13333V141.733H2.4V141.6H2.66667V141.467H2.8V141.333H3.06667V141.2H3.33333V141.067H3.6V140.933H3.73333V140.8H4V140.667H4.26667V140.533H4.53333V140.4H4.66667V140.267H4.93333V140.133H5.2V140H5.33333V139.867H5.6V139.733H5.86667V139.6H6.13333V139.467H6.26667V139.333H6.53333V139.2H6.8V139.067H7.06667V138.933H7.2V138.8H7.46667V138.667H7.73333V138.533H8V138.4H8.13333V138.267H8.4V138.133H8.66667V138H8.8V137.867H9.06667V137.733H9.33333V137.6H9.6V137.467H9.73333V137.333H10V137.2H10.2667V137.067H10.5333V136.933H10.6667V136.8H10.9333V136.667H11.2V136.533H11.4667V136.4H11.6V136.267H11.8667V136.133H12.1333V136H12.2667V135.867H12.5333V135.733H12.8V135.6H13.0667V135.467H13.2V135.333H13.4667V135.2H13.7333V135.067H14V134.933H14.1333V134.8H14.4V134.667H14.6667V134.533H14.9333V134.4H15.0667V134.267H15.3333V134.133H15.6V134H15.7333V133.867H16V133.733H16.2667V133.6H16.5333V133.467H16.6667V133.333H16.9333V133.2H17.2V133.067H17.4667V132.933H17.6V132.8H17.8667V132.667H18.1333V132.533H18.2667V132.4H18.5333V132.267H18.8V132.133H19.0667V132H19.2V131.867H19.4667V131.733H19.7333V131.6H20V131.467H20.1333V131.333H20.4V131.2H20.6667V131.067H20.9333V130.933H21.0667V130.8H21.3333V130.667H21.6V130.533H21.7333V130.4H22V130.267H22.2667V130.133H22.5333V130H22.6667V129.867H22.9333V129.733H23.2V129.6H23.4667V129.467H23.6V129.333H23.8667V129.2H24.1333V129.067H24.4V128.933H24.5333V128.8H24.8V128.667H25.0667V128.533H25.2V128.4H25.4667V128.267H25.7333V128.133H26V128H26.1333V127.867H26.4V127.733H26.6667V127.6H26.9333V127.467H27.0667V127.333H27.3333V127.2H27.6V127.067H27.7333V126.933H28V126.8H28.2667V126.667H28.5333V126.533H28.6667V126.4H28.9333V126.267H29.2V126.133H29.4667V126H29.6V125.867H29.8667V125.733H30.1333V125.6H30.4V125.467H30.5333V125.333H30.8V125.2H31.0667V125.067H31.2V124.933H31.4667V124.8H31.7333V124.667H32V124.533H32.1333V124.4H32.4V124.267H32.6667V124.133H32.9333V124H33.0667V123.867H33.3333V123.733H33.6V123.6H33.8667V123.467H34V123.333H34.2667V123.2H34.5333V123.067H34.6667V122.933H34.9333V122.8H35.2V122.667H35.4667V122.533H35.6V122.4H35.8667V122.267H36.1333V122.133H36.4V122H36.5333V121.867H36.8V121.733H37.0667V121.6H37.3333V121.467H37.4667V121.333H37.7333V121.2H38V121.067H38.1333V120.933H38.4V120.8H38.6667V120.667H38.9333V120.533H39.0667V120.4H39.3333V120.267H39.6V120.133H39.8667V120H40V119.867H40.2667V119.733H40.5333V119.6H40.6667V119.467H40.9333V119.333H41.2V119.2H41.4667V119.067H41.6V118.933H41.8667V118.8H42.1333V118.667H42.4V118.533H42.5333V118.4H42.8V118.267H43.0667V118H42.8V117.867H42.5333V117.733H42.4V117.6H42.1333V117.467H41.8667V117.333H41.6V117.2H41.4667V117.067H41.2V116.933H40.9333V116.8H40.8V116.667H40.5333V116.533H40.2667V116.4H40V116.267H39.8667V116.133H39.6V116H39.3333V115.867H39.0667V115.733H38.9333V115.6H38.6667V115.467H38.4V115.333H38.1333V115.2H38V115.067H37.7333V114.933H37.4667V114.8H37.3333V114.667H37.0667V114.533H36.8V114.4H36.5333V114.267H36.4V114.133H36.1333V114H35.8667V113.867H35.6V113.733H35.4667V113.6H35.2V113.467H34.9333V113.333H34.8V113.2H34.5333V113.067H34.2667V112.933H34V112.8H33.8667V112.667H33.6V112.533H33.3333V112.4H33.0667V112.267H32.9333V112.133H32.6667V112H32.4V111.867H32.1333V111.733H32V111.6H31.7333V111.467H31.4667V111.333H31.3333V111.2H31.0667V111.067H30.8V110.933H30.5333V110.8H30.4V110.667H30.1333V110.533H29.8667V110.4H29.6V110.267H29.4667V110.133H29.2V110H28.9333V109.867H28.6667V109.733H28.5333V109.6H28.2667V109.467H28V109.333H27.8667V109.2H27.6V109.067H27.3333V108.933H27.0667V108.8H26.9333V108.667H26.6667V108.533H26.4V108.4H26.1333V108.267H26V108.133H25.7333V108H25.4667V107.867H25.3333V107.733H25.0667V107.6H24.8V107.467H24.5333V107.333H24.4V107.2H24.1333V107.067H23.8667V106.933H23.6V106.8H23.4667V106.667H23.2V106.533H22.9333V106.4H22.6667V106.267H22.5333V106.133H22.2667V106H22V105.867H21.8667V105.733H21.6V105.6H21.3333V105.467H21.0667V105.333H20.9333V105.2H20.6667V105.067H20.4V104.933H20.1333V104.8H20V104.667H19.7333V104.533H19.4667V104.4H19.2V104.267H19.0667V104.133H18.8V104H18.5333V103.867H18.4V103.733H18.1333V103.6H17.8667V103.467H17.6V103.333H17.4667V103.2H17.2V103.067H16.9333V102.933H16.6667V102.8H16.5333V102.667H16.2667V102.533H16V102.4H15.7333V102.267H15.6V102.133H15.3333V102H15.0667V101.867H14.9333V101.733H14.6667V101.6H14.4V101.467H14.1333V101.333H14V101.2H13.7333V101.067H13.4667V100.933H13.2V100.8H13.0667V100.667H12.8V100.533H12.5333V100.4H12.4V100.267H12.1333V100.133H11.8667V100H11.6V99.8667H11.4667V99.7333H11.2V99.6H10.9333V99.4667H10.6667V99.3333H10.5333V99.2H10.2667V99.0667H10V98.9333H9.73333V98.8H9.6V98.6667H9.33333V98.5333H9.06667V98.4H8.93333V98.2667H8.66667V98.1333H8.4V98H8.13333V97.8667H8V97.7333H7.73333V97.6H7.46667V97.4667H7.2V97.3333H7.06667V97.2H6.8V97.0667H6.53333V96.9333H6.26667V96.8H6.13333V96.6667H5.86667V96.5333H5.6V96.4H5.46667V96.2667H5.2V96.1333H4.93333V96H4.66667V95.8667H4.53333V95.7333H4.26667V95.6H4V95.4667H3.73333V95.3333H3.6V95.2H3.33333V95.0667H3.06667V94.9333H2.8V94.8H2.66667V94.6667H2.4V94.5333H2.13333V94.4H2V94.2667H1.73333V94.1333H1.46667V94H1.2V93.8667H1.06667V93.7333H0.8V93.6H0.533333V93.4667H0.266667V93.3333H0.133333V93.2H0V30.9333H0.133333V30.8H0.4V30.6667H0.533333V30.5333H0.8V30.4H1.06667V30.2667H1.2V30.1333H1.46667V30H1.73333V29.8667H2V29.7333H2.13333V29.6H2.4V29.4667H2.66667V29.3333H2.93333V29.2H3.06667V29.0667H3.33333V28.9333H3.6V28.8H3.86667V28.6667H4V28.5333H4.26667V28.4H4.53333V28.2667H4.66667V28.1333H4.93333V28H5.2V27.8667H5.46667V27.7333H5.6V27.6H5.86667V27.4667H6.13333V27.3333H6.4V27.2H6.53333V27.0667H6.8V26.9333H7.06667V26.8H7.2V26.6667H7.46667V26.5333H7.73333V26.4H8V26.2667H8.13333V26.1333H8.4V26H8.66667V25.8667H8.93333V25.7333H9.06667V25.6H9.33333V25.4667H9.6V25.3333H9.86667V25.2H10V25.0667H10.2667V24.9333H10.5333V24.8H10.6667V24.6667H10.9333V24.5333H11.2V24.4H11.4667V24.2667H11.6V24.1333H11.8667V24H12.1333V23.8667H12.4V23.7333H12.5333V23.6H12.8V23.4667H13.0667V23.3333H13.3333V23.2H13.4667V23.0667H13.7333V22.9333H14V22.8H14.1333V22.6667H14.4V22.5333H14.6667V22.4H14.9333V22.2667H15.0667V22.1333H15.3333V22H15.6V21.8667H15.8667V21.7333H16V21.6H16.2667V21.4667H16.5333V21.3333H16.8V21.2H16.9333V21.0667H17.2V20.9333H17.4667V20.8H17.6V20.6667H17.8667V20.5333H18.1333V20.4H18.4V20.2667H18.5333V20.1333H18.8V20H19.0667V19.8667H19.3333V19.7333H19.4667V19.6H19.7333V19.4667H20V19.3333H20.1333V19.2H20.4V19.0667H20.6667V18.9333H20.9333V18.8H21.0667V18.6667H21.3333V18.5333H21.6V18.4H21.8667V18.2667H22V18.1333H22.2667V18H22.5333V17.8667H22.8V17.7333H22.9333V17.6H23.2V17.4667H23.4667V17.3333H23.6V17.2H23.8667V17.0667H24.1333V16.9333H24.4V16.8H24.5333V16.6667H24.8V16.5333H25.0667V16.4H25.3333V16.2667H25.4667V16.1333H25.7333V16H26V15.8667H26.2667V15.7333H26.4V15.6H26.6667V15.4667H26.9333V15.3333H27.0667V15.2H27.3333V15.0667H27.6V14.9333H27.8667V14.8H28V14.6667H28.2667V14.5333H28.5333V14.4H28.8V14.2667H28.9333V14.1333H29.2V14H29.4667V13.8667H29.7333V13.7333H29.8667V13.6H30.1333V13.4667H30.4V13.3333H30.5333V13.2H30.8V13.0667H31.0667V12.9333H31.3333V12.8H31.4667V12.6667H31.7333V12.5333H32V12.4H32.2667V12.2667H32.4V12.1333H32.6667V12H32.9333V11.8667H33.0667V11.7333H33.3333V11.6H33.6V11.4667H33.8667V11.3333H34V11.2H34.2667V11.0667H34.5333V10.9333H34.8V10.8H34.9333V10.6667H35.2V10.5333H35.4667V10.4H35.7333V10.2667H35.8667V10.1333H36.1333V10H36.4V9.86668H36.5333V9.73334H36.8V9.60001H37.0667V9.46668H37.3333V9.33334H37.4667V9.20001H37.7333V9.06668H38V8.93334H38.2667V8.80001H38.4V8.66668H38.6667V8.53334H38.9333V8.40001H39.2V8.26668H39.3333V8.13334H39.6V8.00001H39.8667V7.86668H40V7.73334H40.2667V7.60001H40.5333V7.46668H40.8V7.33334H40.9333V7.20001H41.2V7.06668H41.4667V6.93334H41.7333V6.80001H41.8667V6.66668H42.1333V6.53334H42.4V6.40001H42.6667V6.26668H42.8V6.13334H43.0667V6.00001H43.3333V5.86668H43.4667V5.73334H43.7333V5.60001H44V5.46668H44.2667V5.33334H44.4V5.20001H44.6667V5.06668H44.9333V4.93334H45.2V4.80001H45.3333V4.66668H45.6V4.53334H45.8667V4.40001H46V4.26668H46.2667V4.13334H46.5333V4.00001H46.8V3.86668H46.9333V3.73334H47.2V3.60001H47.4667V3.46668H47.7333V3.33334H47.8667V3.20001H48.1333V3.06668H48.4V2.93334H48.6667V2.80001H48.8V2.66668H49.0667V2.53334H49.3333V2.40001H49.4667V2.26668H49.7333V2.13334H50V2.00001H50.2667V1.86668H50.4V1.73334H50.6667V1.60001H50.9333V1.46668H51.2V1.33334H51.3333V1.20001H51.6V1.06668H51.8667V0.933343H52.1333V0.80001H52.2667V0.666677H52.5333V0.533343H52.8V0.40001H52.9333V0.266677H53.2V0.133343H53.4667V1.00136e-05H54V0.133343H54.2667V0.266677H54.5333V0.40001H54.8V0.533343H54.9333V0.666677H55.2V0.80001H55.4667V0.933343H55.7333V1.06668H55.8667V1.20001H56.1333V1.33334H56.4V1.46668H56.6667V1.60001H56.8V1.73334H57.0667V1.86668H57.3333V2.00001H57.4667V2.13334H57.7333V2.26668H58V2.40001H58.2667V2.53334H58.4V2.66668H58.6667V2.80001H58.9333V2.93334H59.2V3.06668H59.3333V3.20001H59.6V3.33334H59.8667V3.46668H60.1333V3.60001H60.2667V3.73334H60.5333V3.86668H60.8V4.00001H60.9333V4.13334H61.2V4.26668H61.4667V4.40001H61.7333V4.53334H61.8667V4.66668H62.1333V4.80001H62.4V4.93334H62.6667V5.06668H62.8V5.20001H63.0667V5.33334H63.3333V5.46668H63.4667V5.60001H63.7333V5.73334H64V5.86668H64.2667V6.00001H64.4V6.13334H64.6667V6.26668H64.9333V6.40001H65.2V6.53334H65.3333V6.66668H65.6V6.80001H65.8667V6.93334H66.1333V7.06668H66.2667V7.20001H66.5333V7.33334H66.8V7.46668H66.9333V7.60001H67.2V7.73334H67.4667V7.86668H67.7333V8.00001H67.8667V8.13334H68.1333V8.26668H68.4V8.40001H68.6667V8.53334H68.8V8.66668H69.0667V8.80001H69.3333V8.93334H69.6V9.06668H69.7333V9.20001H70V9.33334H70.2667V9.46668H70.4V9.60001H70.6667V9.73334H70.9333V9.86668H71.2V10H71.3333V10.1333H71.6V10.2667H71.8667V10.4H72.1333V10.5333H72.2667V10.6667H72.5333V10.8H72.8V10.9333H73.0667V11.0667H73.2V11.2H73.4667V11.3333H73.7333V11.4667H73.8667V11.6H74.1333V11.7333H74.4V11.8667H74.6667V12H74.8V12.1333H75.0667V12.2667H75.3333V12.4H75.6V12.5333H75.7333V12.6667H76V12.8H76.2667V12.9333H76.4V13.0667H76.6667V13.2H76.9333V13.3333H77.2V13.4667H77.3333V13.6H77.6V13.7333H77.8667V13.8667H78.1333V14H78.2667V14.1333H78.5333V14.2667H78.8V14.4H79.0667V14.5333H79.2V14.6667H79.4667V14.8H79.7333V14.9333H79.8667V15.0667H80.1333V15.2H80.4V15.3333H80.6667V15.4667H80.8V15.6H81.0667V15.7333H81.3333V15.8667H81.6V16H81.7333V16.1333H82V16.2667H82.2667V16.4H82.5333V16.5333H82.6667V16.6667H82.9333V16.8H83.2V16.9333H83.3333V17.0667H83.6V17.2H83.8667V17.3333H84.1333V17.4667H84.2667V17.6H84.5333V17.7333H84.8V17.8667H85.0667V18H85.2V18.1333H85.4667V18.2667H85.7333V18.4H86V18.5333H86.1333V18.6667H86.4V18.8H86.6667V18.9333H86.8V19.0667H87.0667V19.2H87.3333V19.3333H87.6V19.4667H87.7333V19.6H88V19.7333H88.2667V19.8667H88.5333V20H88.6667V20.1333H88.9333V20.2667H89.2V20.4H89.3333V20.5333H89.6V20.6667H89.8667V20.8H90.1333V20.9333H90.2667V21.0667H90.5333V21.2H90.8V21.3333H91.0667V21.4667H91.2V21.6H91.4667V21.7333H91.7333V21.8667H92V22H92.1333V22.1333H92.4V22.2667H92.6667V22.4H92.8V22.5333H93.0667V22.6667H93.3333V22.8H93.6V22.9333H93.7333V23.0667H94V23.2H94.2667V23.3333H94.5333V23.4667H94.6667V23.6H94.9333V23.7333H95.2V23.8667H95.4667V24H95.6V24.1333H95.8667V24.2667H96.1333V24.4H96.2667V24.5333H96.5333V24.6667H96.8V24.8H97.0667V24.9333H97.2V25.0667H97.4667V25.2H97.7333V25.3333H98V25.4667H98.1333V25.6H98.4V25.7333H98.6667V25.8667H98.8V26H99.0667V26.1333H99.3333V26.2667H99.6V26.4H99.7333V26.5333H100V26.6667H100.267V26.8H100.533V26.9333H100.667V27.0667H100.933V27.2H101.2V27.3333H101.467V27.4667H101.6V27.6H101.867V27.7333H102.133V27.8667H102.267V28H102.533V28.1333H102.8V28.2667H103.067V28.4H103.2V28.5333H103.467V28.6667H103.733V28.8H104V28.9333H104.133V29.0667H104.4V29.2H104.667V29.3333H104.933V29.4667H105.067V29.6H105.333V29.7333H105.6V29.8667H105.733V30H106V30.1333H106.267V30.2667H106.533V30.4H106.667V30.5333H106.933V30.6667H107.2V30.8H107.467V30.9333H107.6V80.9333H107.733V80.8H108V80.6667H108.133V80.5333H108.4V80.4H108.667V80.2667H108.8V80.1333H109.067V80H109.333V79.8667H109.6V79.7333H109.733V79.6H110V79.4667H110.267V79.3333H110.533V79.2H110.667V79.0667H110.933V78.9333H111.2V78.8H111.467V78.6667H111.6V78.5333H111.867V78.4H112.133V78.2667H112.267V78.1333H112.533V78H112.8V77.8667H113.067V77.7333H113.2V77.6H113.467V77.4667H113.733V77.3333H114V77.2H114.133V77.0667H114.4V76.9333H114.667V76.8H114.8V76.6667H115.067V76.5333H115.333V76.4H115.6V76.2667H115.733V76.1333H116V76H116.267V75.8667H116.533V75.7333H116.667V75.6H116.933V75.4667H117.2V75.3333H117.467V75.2H117.6V75.0667H117.867V74.9333H118.133V74.8H118.267V74.6667H118.533V74.5333H118.8V74.4H119.067V74.2667H119.2V74.1333H119.467V74H119.733V73.8667H120V73.7333H120.133V73.6H120.4V73.4667H120.667V73.3333H120.933V73.2H121.067V73.0667H121.333V72.9333H121.6V72.8H121.733V72.6667H122V72.5333H122.267V72.4H122.533V72.2667H122.667V72.1333H122.933V72H123.2V71.8667H123.467V71.7333H123.6V71.6H123.867V71.4667H124.133V71.3333H124.267V71.2H124.533V71.0667H124.8V70.9333H125.067V70.8H125.2V70.6667H125.467V70.5333H125.733V70.4H126V70.2667H126.133V70.1333H126.4V70H126.667V69.8667H126.933V69.7333H127.067V69.6H127.333V69.4667H127.6V69.3333H127.733V69.2H128V69.0667H128.267V68.9333H128.533V68.8H128.667V68.6667H128.933V68.5333H129.2V68.4H129.467V68.2667H129.6V68.1333H129.867V68H130.133V67.8667H130.4V67.7333H130.533V67.6H130.8V67.4667H131.067V67.3333H131.2V67.2H131.467V67.0667H131.733V66.9333H132V66.8H132.133V66.6667H132.4V66.5333H132.667V66.4H132.933V66.2667H133.067V66.1333H133.333V66H133.6V65.8667H133.867V65.7333H134V65.6H134.267V65.4667H134.533V65.3333H134.667V65.2H134.933V65.0667H135.2V64.9333H135.467V64.8H135.6V64.6667H135.867V64.5333H136.133V64.4H136.4V64.2667H136.533V64.1333H136.8V64H137.067V63.8667H137.333V63.7333H137.467V63.6H137.733V63.4667H138V63.3333H138.133V63.2H138.4V63.0667H138.667V62.9333H138.933V62.8H139.067V62.6667H139.333V62.5333H139.6V62.4H139.867V62.2667H140V62.1333H140.267V62H140.533V61.8667H140.667V61.7333H140.933V61.6H141.2V61.4667H141.467V61.3333H141.6V61.2H141.867V61.0667H142.133V60.9333H142.4V60.8H142.533V60.6667H142.8V60.5333H143.067V60.4H143.333V60.2667H143.467V60.1333H143.733V60H144V59.8667H144.133V59.7333H144.4V59.6H144.667V59.4667H144.933V59.3333H145.067V59.2H145.333V59.0667H145.6V58.9333H145.867V58.8H146V58.6667H146.267V58.5333H146.533V58.4H146.8V58.2667H146.933V58.1333H147.2V58H147.467V57.8667H147.6V57.7333H147.867V57.6H148.133V57.4667H148.4V57.3333H148.533V57.2H148.8V57.0667H149.067V56.9333H149.333V56.8H149.467V56.6667H149.733V56.5333H150V56.4H150.267V56.2667H150.4V56.1333H150.667V56H151.067V56.1333H151.333V56.2667H151.467V56.4H151.733V56.5333H152V56.6667H152.267V56.8H152.4V56.9333H152.667V57.0667H152.933V57.2H153.2V57.3333H153.333V57.4667H153.6V57.6H153.867V57.7333H154V57.8667H154.267V58H154.533V58.1333H154.8V58.2667H154.933V58.4H155.2V58.5333H155.467V58.6667H155.733V58.8H155.867V58.9333H156.133V59.0667H156.4V59.2H156.533V59.3333H156.8V59.4667H157.067V59.6H157.333V59.7333H157.467V59.8667H157.733V60H158V60.1333H158.267V60.2667H158.4V60.4H158.667V60.5333H158.933V60.6667H159.2V60.8H159.333V60.9333H159.6V61.0667H159.867V61.2H160V61.3333H160.267V61.4667H160.533V61.6H160.8V61.7333H160.933V61.8667H161.2V62H161.467V62.1333H161.733V62.2667H161.867V62.4H162.133V62.5333H162.4V62.6667H162.667V62.8H162.8V62.9333H163.067V63.0667H163.333V63.2H163.467V63.3333H163.733V63.4667H164V63.6H164.267V63.7333H164.4V63.8667H164.667V64H164.933V64.1333H165.2V64.2667H165.333V64.4H165.6V64.5333H165.867V64.6667H166.133V64.8H166.267V64.9333H166.533V65.0667H166.8V65.2H166.933V65.3333H167.2V65.4667H167.467V65.6H167.733V65.7333H167.867V65.8667H168.133V66H168.4V66.1333H168.667V66.2667H168.8V66.4H169.067V66.5333H169.333V66.6667H169.467V66.8H169.733V66.9333H170V67.0667H170.267V67.2H170.4V67.3333H170.667V67.4667H170.933V67.6H171.2V67.7333H171.333V67.8667H171.6V68H171.867V68.1333H172.133V68.2667H172.267V68.4H172.533V68.5333H172.8V68.6667H172.933V68.8H173.2V68.9333H173.467V69.0667H173.733V69.2H173.867V69.3333H174.133V69.4667H174.4V69.6H174.667V69.7333H174.8V69.8667H175.067V70H175.333V70.1333H175.6V70.2667H175.733V70.4H176V70.5333H176.267V70.6667H176.4V70.8H176.667V70.9333H176.933V71.0667H177.2V71.2H177.333V71.3333H177.6V71.4667H177.867V71.6H178.133V71.7333H178.267V71.8667H178.533V72H178.8V72.1333H178.933V72.2667H179.2V72.4H179.467V72.5333H179.733V72.6667H179.867V72.8H180.133V72.9333H180.4V73.0667H180.667V73.2H180.8V73.3333H181.067V73.4667H181.333V73.6H181.6V73.7333H181.733V73.8667H182V74H182.267V74.1333H182.4V74.2667H182.667V74.4H182.933V74.5333H183.2V74.6667H183.333V74.8H183.6V74.9333H183.867V75.0667H184.133V75.2H184.267V75.3333H184.533V75.4667H184.8V75.6H185.067V75.7333H185.2V75.8667H185.467V76H185.733V76.1333H185.867V76.2667H186.133V76.4H186.4V76.5333H186.667V76.6667H186.8V76.8H187.067V76.9333H187.333V77.0667H187.6V77.2H187.733V77.3333H188V77.4667H188.267V77.6H188.533V77.7333H188.667V77.8667H188.933V78H189.2V78.1333H189.333V78.2667H189.6V78.4H189.867V78.5333H190.133V78.6667H190.267V78.8H190.533V78.9333H190.8V79.0667H191.067V79.2H191.2V79.3333H191.467V79.4667H191.733V79.6H191.867V79.7333H192.133V79.8667H192.4V80H192.667V80.1333H192.8V80.2667H193.067V80.4H193.333V80.5333H193.6V80.6667H193.733V80.8H194V80.9333H194.267V81.0667H194.533V81.2H194.667V81.3333H194.933V81.4667H195.2V81.6H195.333V81.7333H195.6V81.8667H195.867V82H196.133V82.1333H196.267V82.2667H196.533V82.4H196.8V82.5333H197.067V82.6667H197.2V82.8H197.467V82.9333H197.733V83.0667H198V83.2H198.133V83.3333H198.4V83.4667H198.667V83.6H198.8V83.7333H199.067V83.8667H199.333V84H199.6V84.1333H199.733V84.2667H200V84.4H200.267V84.5333H200.533V84.6667H200.667V84.8H200.933V84.9333H201.2V85.0667H201.467V85.2H201.6V85.3333H201.867V85.4667H202.133V85.6H202.267V85.7333H202.533V85.8667H202.8V86H203.067V86.1333H203.2V86.2667H203.467V86.4H203.733V86.5333H204V86.6667H204.133V86.8H204.4V86.9333H204.667V149.333H204.4V149.467H204.133V149.6H204V149.733H203.733V149.867H203.467V150H203.2V150.133H203.067V150.267H202.8V150.4H202.533V150.533H202.267V150.667H202.133V150.8H201.867V150.933H201.6V151.067H201.333V151.2H201.2V151.333H200.933V151.467H200.667V151.6H200.533V151.733H200.267V151.867H200V152H199.733V152.133H199.6V152.267H199.333V152.4H199.067V152.533H198.8V152.667H198.667V152.8H198.4V152.933H198.133V153.067H198V153.2H197.733V153.333H197.467V153.467H197.2V153.6H197.067V153.733H196.8V153.867H196.533V154H196.267V154.133H196.133V154.267H195.867V154.4H195.6V154.533H195.333V154.667H195.2V154.8H194.933V154.933H194.667V155.067H194.533V155.2H194.267V155.333H194V155.467H193.733V155.6H193.6V155.733H193.333V155.867H193.067V156H192.8V156.133H192.667V156.267H192.4V156.4H192.133V156.533H191.867V156.667H191.733V156.8H191.467V156.933H191.2V157.067H191.067V157.2H190.8V157.333H190.533V157.467H190.267V157.6H190.133V157.733H189.867V157.867H189.6V158H189.333V158.133H189.2V158.267H188.933V158.4H188.667V158.533H188.4V158.667H188.267V158.8H188V158.933H187.733V159.067H187.6V159.2H187.333V159.333H187.067V159.467H186.8V159.6H186.667V159.733H186.4V159.867H186.133V160H185.867V160.133H185.733V160.267H185.467V160.4H185.2V160.533H185.067V160.667H184.8V160.8H184.533V160.933H184.267V161.067H184.133V161.2H183.867V161.333H183.6V161.467H183.333V161.6H183.2V161.733H182.933V161.867H182.667V162H182.4V162.133H182.267V162.267H182V162.4H181.733V162.533H181.6V162.667H181.333V162.8H181.067V162.933H180.8V163.067H180.667V163.2H180.4V163.333H180.133V163.467H179.867V163.6H179.733V163.733H179.467V163.867H179.2V164H178.933V164.133H178.8V164.267H178.533V164.4H178.267V164.533H178.133V164.667H177.867V164.8H177.6V164.933H177.333V165.067H177.2V165.2H176.933V165.333H176.667V165.467H176.4V165.6H176.267V165.733H176V165.867H175.733V166H175.467V166.133H175.333V166.267H175.067V166.4H174.8V166.533H174.667V166.667H174.4V166.8H174.133V166.933H173.867V167.067H173.733V167.2H173.467V167.333H173.2V167.467H172.933V167.6H172.8V167.733H172.533V167.867H172.267V168H172.133V168.133H171.867V168.267H171.6V168.4H171.333V168.533H171.2V168.667H170.933V168.8H170.667V168.933H170.4V169.067H170.267V169.2H170V169.333H169.733V169.467H169.467V169.6H169.333V169.733H169.067V169.867H168.8V170H168.667V170.133H168.4V170.267H168.133V170.4H167.867V170.533H167.733V170.667H167.467V170.8H167.2V170.933H166.933V171.067H166.8V171.2H166.533V171.333H166.267V171.467H166V171.6H165.867V171.733H165.6V171.867H165.333V172H165.2V172.133H164.933V172.267H164.667V172.4H164.4V172.533H164.267V172.667H164V172.8H163.733V172.933H163.467V173.067H163.333V173.2H163.067V173.333H162.8V173.467H162.667V173.6H162.4V173.733H162.133V173.867H161.867V174H161.733V174.133H161.467V174.267H161.2V174.4H160.933V174.533H160.8V174.667H160.533V174.8H160.267V174.933H160V175.067H159.867V175.2H159.6V175.333H159.333V175.467H159.2V175.6H158.933V175.733H158.667V175.867H158.4V176H158.267V176.133H158V176.267H157.733V176.4H157.467V176.533H157.333V176.667H157.067V176.8H156.8V176.933H156.533V177.067H156.4V177.2H156.133V177.333H155.867V177.467H155.733V177.6H155.467V177.733H155.2V177.867H154.933V178H154.8V178.133H154.533V178.267H154.267V178.4H154V178.533H153.867V178.667H153.6V178.8H153.333V178.933H153.067V179.067H152.933V179.2H152.667V179.333H152.4V179.467H152.267V179.6H152V179.733H151.733V179.867H151.467V180H151.333V180.133H151.067V180.267H150.667V180.133H150.4V180H150.267V179.867H150V179.733H149.733V179.6H149.467V179.467H149.333V179.333H149.067V179.2H148.8V179.067H148.533V178.933H148.4V178.8H148.133V178.667H147.867V178.533H147.6V178.4H147.467V178.267H147.2V178.133H146.933V178H146.8V177.867H146.533V177.733H146.267V177.6H146V177.467H145.867V177.333H145.6V177.2H145.333V177.067H145.067V176.933H144.933V176.8H144.667V176.667H144.4V176.533H144.133V176.4H144V176.267H143.733V176.133H143.467V176H143.333V175.867H143.067V175.733H142.8V175.6H142.533V175.467H142.4V175.333H142.133V175.2H141.867V175.067H141.6V174.933H141.467V174.8H141.2V174.667H140.933V174.533H140.8V174.4H140.533V174.267H140.267V174.133H140V174H139.867V173.867H139.6V173.733H139.333V173.6H139.067V173.467H138.933V173.333H138.667V173.2H138.4V173.067H138.133V172.933H138V172.8H137.733V172.667H137.467V172.533H137.333V172.4H137.067V172.267H136.8V172.133H136.533V172H136.4V171.867H136.133V171.733H135.867V171.6H135.6V171.467H135.467V171.333H135.2V171.2H134.933V171.067H134.667V170.933H134.533V170.8H134.267V170.667H134V170.533H133.867V170.4H133.6V170.267H133.333V170.133H133.067V170H132.933V169.867H132.667V169.733H132.4V169.6H132.133V169.467H132V169.333H131.733V169.2H131.467V169.067H131.2V168.933H131.067V168.8H130.8V168.667H130.533V168.533H130.4V168.4H130.133V168.267H129.867V168.133H129.6V168H129.467V167.867H129.2V167.733H128.933V167.6H128.667V167.467H128.533V167.333H128.267V167.2H128V167.067H127.867V166.933H127.6V166.8H127.333V166.667H127.067V166.533H126.933V166.4H126.667V166.267H126.4V166.133H126.133V166H126V165.867H125.733V165.733H125.467V165.6H125.2V165.467H125.067V165.333H124.8V165.2H124.533V165.067H124.4V164.933H124.133V164.8H123.867V164.667H123.6V164.533H123.467V164.4H123.2V164.267H122.933V164.133H122.667V164H122.533V163.867H122.267V163.733H122V163.6H121.733V163.467H121.6V163.333H121.333V163.2H121.067V163.067H120.933V162.933H120.667V162.8H120.4V162.667H120.133V162.533H120V162.4H119.733V162.267H119.467V162.133H119.2V162H119.067V161.867H118.8V161.733H118.533V161.6H118.267V161.467H118.133V161.333H117.867V161.2H117.6V161.067H117.467V160.933H117.2V160.8H116.933V160.667H116.667V160.533H116.533V160.4H116.267V160.267H116V160.133H115.733V160H115.6V159.867H115.333V159.733H115.067V159.6H114.933V159.467H114.667V159.333H114.4V159.2H114.133V159.067H114V158.933H113.733V158.8H113.467V158.667H113.2V158.533H113.067V158.4H112.8V158.267H112.533V158.133H112.267V158H112.133V157.867H111.867V157.733H111.6V157.6H111.467V157.467H111.2V157.333H110.933V157.2H110.667V157.067H110.533V156.933H110.267V156.8H110V156.667H109.733V156.533H109.6V156.4H109.333V156.267H109.067V156.133H108.8V156H108.667V155.867H108.4V155.733H108.133V155.6H108V155.467H107.733V155.333H107.6V205.333H107.467V205.467H107.2V205.6H106.933V205.733H106.667V205.867H106.533V206H106.267V206.133H106V206.267H105.733V206.4H105.6V206.533H105.333V206.667H105.067V206.8H104.8V206.933H104.667V207.067H104.4V207.2H104.133V207.333H104V207.467H103.733V207.6H103.467V207.733H103.2V207.867H103.067V208H102.8V208.133H102.533V208.267H102.267V208.4H102.133V208.533H101.867V208.667H101.6V208.8H101.333V208.933H101.2V209.067H100.933V209.2H100.667V209.333H100.533V209.467H100.267V209.6H100V209.733H99.7333V209.867H99.6V210H99.3333V210.133H99.0667V210.267H98.8V210.4H98.6667V210.533H98.4V210.667H98.1333V210.8H98V210.933H97.7333V211.067H97.4667V211.2H97.2V211.333H97.0667V211.467H96.8V211.6H96.5333V211.733H96.2667V211.867H96.1333V212H95.8667V212.133H95.6V212.267H95.3333V212.4H95.2V212.533H94.9333V212.667H94.6667V212.8H94.5333V212.933H94.2667V213.067H94V213.2H93.7333V213.333H93.6V213.467H93.3333V213.6H93.0667V213.733H92.8V213.867H92.6667V214H92.4V214.133H92.1333V214.267H91.8667V214.4H91.7333V214.533H91.4667V214.667H91.2V214.8H91.0667V214.933H90.8V215.067H90.5333V215.2H90.2667V215.333H90.1333V215.467H89.8667V215.6H89.6V215.733H89.3333V215.867H89.2V216H88.9333V216.133H88.6667V216.267H88.4V216.4H88.2667V216.533H88V216.667H87.7333V216.8H87.6V216.933H87.3333V217.067H87.0667V217.2H86.8V217.333H86.6667V217.467H86.4V217.6H86.1333V217.733H85.8667V217.867H85.7333V218H85.4667V218.133H85.2V218.267H85.0667V218.4H84.8V218.533H84.5333V218.667H84.2667V218.8H84.1333V218.933H83.8667V219.067H83.6V219.2H83.3333V219.333H83.2V219.467H82.9333V219.6H82.6667V219.733H82.4V219.867H82.2667V220H82V220.133H81.7333V220.267H81.6V220.4H81.3333V220.533H81.0667V220.667H80.8V220.8H80.6667V220.933H80.4V221.067H80.1333V221.2H79.8667V221.333H79.7333V221.467H79.4667V221.6H79.2V221.733H78.9333V221.867H78.8V222H78.5333V222.133H78.2667V222.267H78.1333V222.4H77.8667V222.533H77.6V222.667H77.3333V222.8H77.2V222.933H76.9333V223.067H76.6667V223.2H76.4V223.333H76.2667V223.467H76V223.6H75.7333V223.733H75.6V223.867H75.3333V224H75.0667V224.133H74.8V224.267H74.6667V224.4H74.4V224.533H74.1333V224.667H73.8667V224.8H73.7333V224.933H73.4667V225.067H73.2V225.2H72.9333V225.333H72.8V225.467H72.5333V225.6H72.2667V225.733H72.1333V225.867H71.8667V226H71.6V226.133H71.3333V226.267H71.2V226.4H70.9333V226.533H70.6667V226.667H70.4V226.8H70.2667V226.933H70V227.067H69.7333V227.2H69.4667V227.333H69.3333V227.467H69.0667V227.6H68.8V227.733H68.6667V227.867H68.4V228H68.1333V228.133H67.8667V228.267H67.7333V228.4H67.4667V228.533H67.2V228.667H66.9333V228.8H66.8V228.933H66.5333V229.067H66.2667V229.2H66V229.333H65.8667V229.467H65.6V229.6H65.3333V229.733H65.2V229.867H64.9333V230H64.6667V230.133H64.4V230.267H64.2667V230.4H64V230.533H63.7333V230.667H63.4667V230.8H63.3333V230.933H63.0667V231.067H62.8V231.2H62.6667V231.333H62.4V231.467H62.1333V231.6H61.8667V231.733H61.7333V231.867H61.4667V232H61.2V232.133H60.9333V232.267H60.8V232.4H60.5333V232.533H60.2667V232.667H60V232.8H59.8667V232.933H59.6V233.067H59.3333V233.2H59.2V233.333H58.9333V233.467H58.6667V233.6H58.4V233.733H58.2667V233.867H58V234H57.7333V234.133H57.4667V234.267H57.3333V234.4H57.0667V234.533H56.8V234.667H56.5333V234.8H56.4V234.933H56.1333V235.067H55.8667V235.2H55.7333V235.333H55.4667V235.467H55.2V235.6H54.9333V235.733H54.8V235.867H54.5333V236H54.2667V236.133H54V236.267H53.4667ZM48.4 220.933V221.067H48.5333V127.333H48.2667V127.467H48.1333V127.6H47.8667V127.733H47.6V127.867H47.3333V128H47.2V128.133H46.9333V128.267H46.6667V128.4H46.4V128.533H46.2667V128.667H46V128.8H45.7333V128.933H45.4667V129.067H45.3333V129.2H45.0667V129.333H44.8V129.467H44.6667V129.6H44.4V129.733H44.1333V129.867H43.8667V130H43.7333V130.133H43.4667V130.267H43.2V130.4H42.9333V130.533H42.8V130.667H42.5333V130.8H42.2667V130.933H42.1333V131.067H41.8667V131.2H41.6V131.333H41.3333V131.467H41.2V131.6H40.9333V131.733H40.6667V131.867H40.4V132H40.2667V132.133H40V132.267H39.7333V132.4H39.4667V132.533H39.3333V132.667H39.0667V132.8H38.8V132.933H38.6667V133.067H38.4V133.2H38.1333V133.333H37.8667V133.467H37.7333V133.6H37.4667V133.733H37.2V133.867H36.9333V134H36.8V134.133H36.5333V134.267H36.2667V134.4H36V134.533H35.8667V134.667H35.6V134.8H35.3333V134.933H35.2V135.067H34.9333V135.2H34.6667V135.333H34.4V135.467H34.2667V135.6H34V135.733H33.7333V135.867H33.4667V136H33.3333V136.133H33.0667V136.267H32.8V136.4H32.6667V136.533H32.4V136.667H32.1333V136.8H31.8667V136.933H31.7333V137.067H31.4667V137.2H31.2V137.333H30.9333V137.467H30.8V137.6H30.5333V137.733H30.2667V137.867H30V138H29.8667V138.133H29.6V138.267H29.3333V138.4H29.2V138.533H28.9333V138.667H28.6667V138.8H28.4V138.933H28.2667V139.067H28V139.2H27.7333V139.333H27.4667V139.467H27.3333V139.6H27.0667V139.733H26.8V139.867H26.5333V140H26.4V140.133H26.1333V140.267H25.8667V140.4H25.7333V140.533H25.4667V140.667H25.2V140.8H24.9333V140.933H24.8V141.067H24.5333V141.2H24.2667V141.333H24V141.467H23.8667V141.6H23.6V141.733H23.3333V141.867H23.0667V142H22.9333V142.133H22.6667V142.267H22.4V142.4H22.2667V142.533H22V142.667H21.7333V142.8H21.4667V142.933H21.3333V143.067H21.0667V143.2H20.8V143.333H20.5333V143.467H20.4V143.6H20.1333V143.733H19.8667V143.867H19.7333V144H19.4667V144.133H19.2V144.267H18.9333V144.4H18.8V144.533H18.5333V144.667H18.2667V144.8H18V144.933H17.8667V145.067H17.6V145.2H17.3333V145.333H17.0667V145.467H16.9333V145.6H16.6667V145.733H16.4V145.867H16.2667V146H16V146.133H15.7333V146.267H15.4667V146.4H15.3333V146.533H15.0667V146.667H14.8V146.8H14.5333V146.933H14.4V147.067H14.1333V147.2H13.8667V147.333H13.6V147.467H13.4667V147.6H13.2V147.733H12.9333V147.867H12.8V148H12.5333V148.133H12.2667V148.267H12V148.4H11.8667V148.533H11.6V148.667H11.3333V148.8H11.0667V148.933H10.9333V149.067H10.6667V149.2H10.5333V199.2H10.6667V199.333H10.9333V199.467H11.2V199.6H11.3333V199.733H11.6V199.867H11.8667V200H12.1333V200.133H12.2667V200.267H12.5333V200.4H12.8V200.533H13.0667V200.667H13.2V200.8H13.4667V200.933H13.7333V201.067H13.8667V201.2H14.1333V201.333H14.4V201.467H14.6667V201.6H14.8V201.733H15.0667V201.867H15.3333V202H15.6V202.133H15.7333V202.267H16V202.4H16.2667V202.533H16.4V202.667H16.6667V202.8H16.9333V202.933H17.2V203.067H17.3333V203.2H17.6V203.333H17.8667V203.467H18.1333V203.6H18.2667V203.733H18.5333V203.867H18.8V204H19.0667V204.133H19.2V204.267H19.4667V204.4H19.7333V204.533H19.8667V204.667H20.1333V204.8H20.4V204.933H20.6667V205.067H20.8V205.2H21.0667V205.333H21.3333V205.467H21.6V205.6H21.7333V205.733H22V205.867H22.2667V206H22.5333V206.133H22.6667V206.267H22.9333V206.4H23.2V206.533H23.3333V206.667H23.6V206.8H23.8667V206.933H24.1333V207.067H24.2667V207.2H24.5333V207.333H24.8V207.467H25.0667V207.6H25.2V207.733H25.4667V207.867H25.7333V208H26V208.133H26.1333V208.267H26.4V208.4H26.6667V208.533H26.8V208.667H27.0667V208.8H27.3333V208.933H27.6V209.067H27.7333V209.2H28V209.333H28.2667V209.467H28.5333V209.6H28.6667V209.733H28.9333V209.867H29.2V210H29.3333V210.133H29.6V210.267H29.8667V210.4H30.1333V210.533H30.2667V210.667H30.5333V210.8H30.8V210.933H31.0667V211.067H31.2V211.2H31.4667V211.333H31.7333V211.467H32V211.6H32.1333V211.733H32.4V211.867H32.6667V212H32.8V212.133H33.0667V212.267H33.3333V212.4H33.6V212.533H33.7333V212.667H34V212.8H34.2667V212.933H34.5333V213.067H34.6667V213.2H34.9333V213.333H35.2V213.467H35.4667V213.6H35.6V213.733H35.8667V213.867H36.1333V214H36.2667V214.133H36.5333V214.267H36.8V214.4H37.0667V214.533H37.2V214.667H37.4667V214.8H37.7333V214.933H38V215.067H38.1333V215.2H38.4V215.333H38.6667V215.467H38.8V215.6H39.0667V215.733H39.3333V215.867H39.6V216H39.7333V216.133H40V216.267H40.2667V216.4H40.5333V216.533H40.6667V216.667H40.9333V216.8H41.2V216.933H41.4667V217.067H41.6V217.2H41.8667V217.333H42.1333V217.467H42.2667V217.6H42.5333V217.733H42.8V217.867H43.0667V218H43.2V218.133H43.4667V218.267H43.7333V218.4H44V218.533H44.1333V218.667H44.4V218.8H44.6667V218.933H44.9333V219.067H45.0667V219.2H45.3333V219.333H45.6V219.467H45.7333V219.6H46V219.733H46.2667V219.867H46.5333V220H46.6667V220.133H46.9333V220.267H47.2V220.4H47.4667V220.533H47.6V220.667H47.8667V220.8H48.1333V220.933H48.4ZM59.0667 220.933V221.067H59.2V220.933H59.4667V220.8H59.6V220.667H59.8667V220.533H60.1333V220.4H60.4V220.267H60.5333V220.133H60.8V220H61.0667V219.867H61.2V219.733H61.4667V219.6H61.7333V219.467H62V219.333H62.1333V219.2H62.4V219.067H62.6667V218.933H62.9333V218.8H63.0667V218.667H63.3333V218.533H63.6V218.4H63.8667V218.267H64V218.133H64.2667V218H64.5333V217.867H64.6667V217.733H64.9333V217.6H65.2V217.467H65.4667V217.333H65.6V217.2H65.8667V217.067H66.1333V216.933H66.4V216.8H66.5333V216.667H66.8V216.533H67.0667V216.4H67.3333V216.267H67.4667V216.133H67.7333V216H68V215.867H68.1333V215.733H68.4V215.6H68.6667V215.467H68.9333V215.333H69.0667V215.2H69.3333V215.067H69.6V214.933H69.8667V214.8H70V214.667H70.2667V214.533H70.5333V214.4H70.6667V214.267H70.9333V214.133H71.2V214H71.4667V213.867H71.6V213.733H71.8667V213.6H72.1333V213.467H72.4V213.333H72.5333V213.2H72.8V213.067H73.0667V212.933H73.3333V212.8H73.4667V212.667H73.7333V212.533H74V212.4H74.1333V212.267H74.4V212.133H74.6667V212H74.9333V211.867H75.0667V211.733H75.3333V211.6H75.6V211.467H75.8667V211.333H76V211.2H76.2667V211.067H76.5333V210.933H76.8V210.8H76.9333V210.667H77.2V210.533H77.4667V210.4H77.6V210.267H77.8667V210.133H78.1333V210H78.4V209.867H78.5333V209.733H78.8V209.6H79.0667V209.467H79.3333V209.333H79.4667V209.2H79.7333V209.067H80V208.933H80.2667V208.8H80.4V208.667H80.6667V208.533H80.9333V208.4H81.0667V208.267H81.3333V208.133H81.6V208H81.8667V207.867H82V207.733H82.2667V207.6H82.5333V207.467H82.8V207.333H82.9333V207.2H83.2V207.067H83.4667V206.933H83.6V206.8H83.8667V206.667H84.1333V206.533H84.4V206.4H84.5333V206.267H84.8V206.133H85.0667V206H85.3333V205.867H85.4667V205.733H85.7333V205.6H86V205.467H86.2667V205.333H86.4V205.2H86.6667V205.067H86.9333V204.933H87.0667V204.8H87.3333V204.667H87.6V204.533H87.8667V204.4H88V204.267H88.2667V204.133H88.5333V204H88.8V203.867H88.9333V203.733H89.2V203.6H89.4667V203.467H89.7333V203.333H89.8667V203.2H90.1333V203.067H90.4V202.933H90.5333V202.8H90.8V202.667H91.0667V202.533H91.3333V202.4H91.4667V202.267H91.7333V202.133H92V202H92.2667V201.867H92.4V201.733H92.6667V201.6H92.9333V201.467H93.2V201.333H93.3333V201.2H93.6V201.067H93.8667V200.933H94V200.8H94.2667V200.667H94.5333V200.533H94.8V200.4H94.9333V200.267H95.2V200.133H95.4667V200H95.7333V199.867H95.8667V199.733H96.1333V199.6H96.4V199.467H96.6667V199.333H96.8V199.2H97.0667V155.867H96.8V156H96.6667V156.133H96.4V156.267H96.1333V156.4H95.8667V156.533H95.7333V156.667H95.4667V156.8H95.2V156.933H94.9333V157.067H94.8V157.2H94.5333V157.333H94.2667V157.467H94.1333V157.6H93.8667V157.733H93.6V157.867H93.3333V158H93.2V158.133H92.9333V158.267H92.6667V158.4H92.4V158.533H92.2667V158.667H92V158.8H91.7333V158.933H91.6V159.067H91.3333V159.2H91.0667V159.333H90.8V159.467H90.6667V159.6H90.4V159.733H90.1333V159.867H89.8667V160H89.7333V160.133H89.4667V160.267H89.2V160.4H88.9333V160.533H88.8V160.667H88.5333V160.8H88.2667V160.933H88.1333V161.067H87.8667V161.2H87.6V161.333H87.3333V161.467H87.2V161.6H86.9333V161.733H86.6667V161.867H86.4V162H86.2667V162.133H86V162.267H85.7333V162.4H85.4667V162.533H85.3333V162.667H85.0667V162.8H84.8V162.933H84.6667V163.067H84.4V163.2H84.1333V163.333H83.8667V163.467H83.7333V163.6H83.4667V163.733H83.2V163.867H82.9333V164H82.8V164.133H82.5333V164.267H82.2667V164.4H82V164.533H81.8667V164.667H81.6V164.8H81.3333V164.933H81.2V165.067H80.9333V165.2H80.6667V165.333H80.4V165.467H80.2667V165.6H80V165.733H79.7333V165.867H79.4667V166H79.3333V166.133H79.0667V166.267H78.8V166.4H78.6667V166.533H78.4V166.667H78.1333V166.8H77.8667V166.933H77.7333V167.067H77.4667V167.2H77.2V167.333H76.9333V167.467H76.8V167.6H76.5333V167.733H76.2667V167.867H76V168H75.8667V168.133H75.6V168.267H75.3333V168.4H75.2V168.533H74.9333V168.667H74.6667V168.8H74.4V168.933H74.2667V169.067H74V169.2H73.7333V169.333H73.4667V169.467H73.3333V169.6H73.0667V169.733H72.8V169.867H72.5333V170H72.4V170.133H72.1333V170.267H71.8667V170.4H71.7333V170.533H71.4667V170.667H71.2V170.8H70.9333V170.933H70.8V171.067H70.5333V171.2H70.2667V171.333H70V171.467H69.8667V171.6H69.6V171.733H69.3333V171.867H69.0667V172H68.9333V172.133H68.6667V172.267H68.4V172.4H68.2667V172.533H68V172.667H67.7333V172.8H67.4667V172.933H67.3333V173.067H67.0667V173.2H66.8V173.333H66.5333V173.467H66.4V173.6H66.1333V173.733H65.8667V173.867H65.7333V174H65.4667V174.133H65.2V174.267H64.9333V174.4H64.8V174.533H64.5333V174.667H64.2667V174.8H64V174.933H63.8667V175.067H63.6V175.2H63.3333V175.333H63.0667V175.467H62.9333V175.6H62.6667V175.733H62.4V175.867H62.2667V176H62V176.133H61.7333V176.267H61.4667V176.4H61.3333V176.533H61.0667V176.667H60.8V176.8H60.5333V176.933H60.4V177.067H60.1333V177.2H59.8667V177.333H59.6V177.467H59.4667V177.6H59.2V177.733H59.0667V220.933ZM150.8 168V168.133H150.933V168H151.067V167.867H151.333V167.733H151.6V167.6H151.733V167.467H152V167.333H152.267V167.2H152.533V167.067H152.667V166.933H152.933V166.8H153.2V166.667H153.467V166.533H153.6V166.4H153.867V166.267H154.133V166.133H154.4V166H154.533V165.867H154.8V165.733H155.067V165.6H155.2V165.467H155.467V165.333H155.733V165.2H156V165.067H156.133V164.933H156.4V164.8H156.667V164.667H156.933V164.533H157.067V164.4H157.333V164.267H157.6V164.133H157.733V164H158V163.867H158.267V163.733H158.533V163.6H158.667V163.467H158.933V163.333H159.2V163.2H159.467V163.067H159.6V162.933H159.867V162.8H160.133V162.667H160.4V162.533H160.533V162.4H160.8V162.267H161.067V162.133H161.2V162H161.467V161.867H161.733V161.733H162V161.6H162.133V161.467H162.4V161.333H162.667V161.2H162.933V161.067H163.067V160.933H163.333V160.8H163.6V160.667H163.867V160.533H164V160.4H164.267V160.267H164.533V160.133H164.667V160H164.933V159.867H165.2V159.733H165.467V159.6H165.6V159.467H165.867V159.333H166.133V159.2H166.4V159.067H166.533V158.933H166.8V158.8H167.067V158.667H167.333V158.533H167.467V158.4H167.733V158.267H168V158.133H168.133V158H168.4V157.867H168.667V157.733H168.933V157.6H169.067V157.467H169.333V157.333H169.6V157.2H169.867V157.067H170V156.933H170.267V156.8H170.533V156.667H170.667V156.533H170.933V156.4H171.2V156.267H171.467V156.133H171.6V156H171.867V155.867H172.133V155.733H172.4V155.6H172.533V155.467H172.8V155.333H173.067V155.2H173.333V155.067H173.467V154.933H173.733V154.8H174V154.667H174.133V154.533H174.4V154.4H174.667V154.267H174.933V154.133H175.067V154H175.333V153.867H175.6V153.733H175.867V153.6H176V153.467H176.267V153.333H176.533V153.2H176.8V153.067H176.933V152.933H177.2V152.8H177.467V152.667H177.6V152.533H177.867V152.4H178.133V152.267H178.4V152.133H178.533V152H178.8V151.867H179.067V151.733H179.333V151.6H179.467V151.467H179.733V151.333H180V151.2H180.267V151.067H180.4V150.933H180.667V150.8H180.933V150.667H181.067V150.533H181.333V150.4H181.6V150.267H181.867V150.133H182V150H182.267V149.867H182.533V149.733H182.8V149.6H182.933V149.467H183.2V149.333H183.467V149.2H183.6V149.067H183.867V148.933H184.133V148.8H184.4V148.667H184.533V148.533H184.8V148.4H185.067V148.267H185.333V148.133H185.467V148H185.733V147.867H186V147.733H186.267V147.6H186.4V147.467H186.667V147.333H186.933V147.2H187.067V147.067H187.333V146.933H187.6V146.8H187.867V146.667H188V146.533H188.267V146.4H188.533V146.267H188.8V146.133H188.933V146H189.2V145.867H189.467V145.733H189.733V145.6H189.867V145.467H190.133V145.333H190.4V145.2H190.533V145.067H190.8V144.933H191.067V144.8H191.333V144.667H191.467V144.533H191.733V144.4H192V144.267H192.267V144.133H192.4V144H192.667V143.867H192.933V143.733H193.2V143.6H193.333V143.467H193.6V143.333H193.867V143.2H194V143.067H194.133V99.8667H193.867V100H193.6V100.133H193.333V100.267H193.2V100.4H192.933V100.533H192.667V100.667H192.4V100.8H192.267V100.933H192V101.067H191.733V101.2H191.6V101.333H191.333V101.467H191.067V101.6H190.8V101.733H190.667V101.867H190.4V102H190.133V102.133H189.867V102.267H189.733V102.4H189.467V102.533H189.2V102.667H188.933V102.8H188.8V102.933H188.533V103.067H188.267V103.2H188.133V103.333H187.867V103.467H187.6V103.6H187.333V103.733H187.2V103.867H186.933V104H186.667V104.133H186.4V104.267H186.267V104.4H186V104.533H185.733V104.667H185.467V104.8H185.333V104.933H185.067V105.067H184.8V105.2H184.667V105.333H184.4V105.467H184.133V105.6H183.867V105.733H183.733V105.867H183.467V106H183.2V106.133H182.933V106.267H182.8V106.4H182.533V106.533H182.267V106.667H182V106.8H181.867V106.933H181.6V107.067H181.333V107.2H181.2V107.333H180.933V107.467H180.667V107.6H180.4V107.733H180.267V107.867H180V108H179.733V108.133H179.467V108.267H179.333V108.4H179.067V108.533H178.8V108.667H178.667V108.8H178.4V108.933H178.133V109.067H177.867V109.2H177.733V109.333H177.467V109.467H177.2V109.6H176.933V109.733H176.8V109.867H176.533V110H176.267V110.133H176V110.267H175.867V110.4H175.6V110.533H175.333V110.667H175.2V110.8H174.933V110.933H174.667V111.067H174.4V111.2H174.267V111.333H174V111.467H173.733V111.6H173.467V111.733H173.333V111.867H173.067V112H172.8V112.133H172.533V112.267H172.4V112.4H172.133V112.533H171.867V112.667H171.733V112.8H171.467V112.933H171.2V113.067H170.933V113.2H170.8V113.333H170.533V113.467H170.267V113.6H170V113.733H169.867V113.867H169.6V114H169.333V114.133H169.067V114.267H168.933V114.4H168.667V114.533H168.4V114.667H168.267V114.8H168V114.933H167.733V115.067H167.467V115.2H167.333V115.333H167.067V115.467H166.8V115.6H166.533V115.733H166.4V115.867H166.133V116H165.867V116.133H165.733V116.267H165.467V116.4H165.2V116.533H164.933V116.667H164.8V116.8H164.533V116.933H164.267V117.067H164V117.2H163.867V117.333H163.6V117.467H163.333V117.6H163.067V117.733H162.933V117.867H162.667V118H162.4V118.133H162.267V118.267H162V118.4H161.733V118.533H161.467V118.667H161.333V118.8H161.067V118.933H160.8V119.067H160.533V119.2H160.4V119.333H160.133V119.467H159.867V119.6H159.6V119.733H159.467V119.867H159.2V120H158.933V120.133H158.8V120.267H158.533V120.4H158.267V120.533H158V120.667H157.867V120.8H157.6V120.933H157.333V121.067H157.067V121.2H156.933V121.333H156.667V121.467H156.4V121.6H156.133V121.733H156V121.867H155.733V122H155.467V122.133H155.333V122.267H155.067V122.4H154.8V122.533H154.533V122.667H154.4V122.8H154.133V122.933H153.867V123.067H153.6V123.2H153.467V123.333H153.2V123.467H152.933V123.6H152.8V123.733H152.533V123.867H152.267V124H152V124.133H151.867V124.267H151.6V124.4H151.333V124.533H151.067V124.667H150.933V124.8H150.667V124.933H150.4V125.067H150.133V125.2H150V125.333H149.733V125.467H149.467V125.6H149.333V125.733H149.067V125.867H148.8V126H148.533V126.133H148.4V126.267H148.133V126.4H147.867V126.533H147.6V126.667H147.467V126.8H147.2V126.933H146.933V127.067H146.667V127.2H146.533V127.333H146.267V127.467H146V127.6H145.867V127.733H145.6V127.867H145.333V128H145.067V128.133H144.933V128.267H144.667V128.4H144.4V128.533H144.133V128.667H144V128.8H143.733V128.933H143.467V129.067H143.2V129.2H143.067V129.333H142.8V129.467H142.533V129.6H142.4V129.733H142.133V129.867H141.867V130H141.6V130.133H141.467V130.267H141.2V130.4H140.933V130.533H140.667V130.667H140.533V130.8H140.267V130.933H140V131.067H139.867V131.2H139.6V131.333H139.333V131.467H139.067V131.6H138.933V131.733H138.667V131.867H138.4V132H138.133V132.133H138V132.267H137.733V132.4H137.467V132.533H137.2V132.667H137.067V132.8H136.8V132.933H136.533V133.067H136.4V133.2H136.133V133.333H135.867V133.467H135.6V133.6H135.467V133.733H135.2V133.867H134.933V134H134.667V134.133H134.533V134.267H134.267V134.4H134V134.533H133.733V134.667H133.6V134.8H133.333V134.933H133.067V135.067H132.933V135.2H132.667V135.333H132.4V135.467H132.133V135.6H132V135.733H131.733V135.867H131.467V136H131.2V136.133H131.067V136.267H130.8V136.4H130.533V136.533H130.267V136.667H130.133V136.8H129.867V136.933H129.6V137.067H129.467V137.2H129.2V137.333H128.933V137.467H128.667V137.6H128.533V137.733H128.267V137.867H128V138H127.733V138.133H127.6V138.267H127.333V138.4H127.067V138.533H126.933V138.667H126.667V138.8H126.4V138.933H126.133V139.067H126V139.2H125.733V139.333H125.467V139.467H125.2V139.6H125.067V139.733H124.8V139.867H124.533V140H124.267V140.133H124.133V140.267H123.867V140.4H123.6V140.533H123.467V140.667H123.2V140.8H122.933V140.933H122.667V141.067H122.533V141.2H122.267V141.333H122V141.467H121.733V141.6H121.6V141.733H121.333V141.867H121.067V142H120.8V142.133H120.667V142.267H120.4V142.4H120.133V142.533H120V142.667H119.733V142.8H119.467V142.933H119.2V143.067H119.067V143.2H118.8V143.333H118.533V143.467H118.267V143.6H118.133V143.733H117.867V143.867H117.6V144H117.333V144.133H117.2V144.267H116.933V144.4H116.667V144.533H116.533V144.667H116.267V144.8H116V144.933H115.733V145.067H115.6V145.2H115.333V145.333H115.067V145.467H114.8V145.6H114.667V145.733H114.4V145.867H114.133V146H114V146.133H113.733V146.267H113.467V146.533H113.6V146.667H113.867V146.8H114.133V146.933H114.4V147.067H114.533V147.2H114.8V147.333H115.067V147.467H115.333V147.6H115.467V147.733H115.733V147.867H116V148H116.267V148.133H116.4V148.267H116.667V148.4H116.933V148.533H117.067V148.667H117.333V148.8H117.6V148.933H117.867V149.067H118V149.2H118.267V149.333H118.533V149.467H118.8V149.6H118.933V149.733H119.2V149.867H119.467V150H119.733V150.133H119.867V150.267H120.133V150.4H120.4V150.533H120.533V150.667H120.8V150.8H121.067V150.933H121.333V151.067H121.467V151.2H121.733V151.333H122V151.467H122.267V151.6H122.4V151.733H122.667V151.867H122.933V152H123.067V152.133H123.333V152.267H123.6V152.4H123.867V152.533H124V152.667H124.267V152.8H124.533V152.933H124.8V153.067H124.933V153.2H125.2V153.333H125.467V153.467H125.733V153.6H125.867V153.733H126.133V153.867H126.4V154H126.533V154.133H126.8V154.267H127.067V154.4H127.333V154.533H127.467V154.667H127.733V154.8H128V154.933H128.267V155.067H128.4V155.2H128.667V155.333H128.933V155.467H129.2V155.6H129.333V155.733H129.6V155.867H129.867V156H130V156.133H130.267V156.267H130.533V156.4H130.8V156.533H130.933V156.667H131.2V156.8H131.467V156.933H131.733V157.067H131.867V157.2H132.133V157.333H132.4V157.467H132.667V157.6H132.8V157.733H133.067V157.867H133.333V158H133.467V158.133H133.733V158.267H134V158.4H134.267V158.533H134.4V158.667H134.667V158.8H134.933V158.933H135.2V159.067H135.333V159.2H135.6V159.333H135.867V159.467H136V159.6H136.267V159.733H136.533V159.867H136.8V160H136.933V160.133H137.2V160.267H137.467V160.4H137.733V160.533H137.867V160.667H138.133V160.8H138.4V160.933H138.667V161.067H138.8V161.2H139.067V161.333H139.333V161.467H139.467V161.6H139.733V161.733H140V161.867H140.267V162H140.4V162.133H140.667V162.267H140.933V162.4H141.2V162.533H141.333V162.667H141.6V162.8H141.867V162.933H142.133V163.067H142.267V163.2H142.533V163.333H142.8V163.467H142.933V163.6H143.2V163.733H143.467V163.867H143.733V164H143.867V164.133H144.133V164.267H144.4V164.4H144.667V164.533H144.8V164.667H145.067V164.8H145.333V164.933H145.6V165.067H145.733V165.2H146V165.333H146.267V165.467H146.4V165.6H146.667V165.733H146.933V165.867H147.2V166H147.333V166.133H147.6V166.267H147.867V166.4H148.133V166.533H148.267V166.667H148.533V166.8H148.8V166.933H148.933V167.067H149.2V167.2H149.467V167.333H149.733V167.467H149.867V167.6H150.133V167.733H150.4V167.867H150.667V168H150.8ZM59.0667 165.333V165.467H59.2V165.333H59.4667V165.2H59.7333V165.067H60V164.933H60.1333V164.8H60.4V164.667H60.6667V164.533H60.8V164.4H61.0667V164.267H61.3333V164.133H61.6V164H61.7333V163.867H62V163.733H62.2667V163.6H62.5333V163.467H62.6667V163.333H62.9333V163.2H63.2V163.067H63.4667V162.933H63.6V162.8H63.8667V162.667H64.1333V162.533H64.2667V162.4H64.5333V162.267H64.8V162.133H65.0667V162H65.2V161.867H65.4667V161.733H65.7333V161.6H66V161.467H66.1333V161.333H66.4V161.2H66.6667V161.067H66.9333V160.933H67.0667V160.8H67.3333V160.667H67.6V160.533H67.7333V160.4H68V160.267H68.2667V160.133H68.5333V160H68.6667V159.867H68.9333V159.733H69.2V159.6H69.4667V159.467H69.6V159.333H69.8667V159.2H70.1333V159.067H70.4V158.933H70.5333V158.8H70.8V158.667H71.0667V158.533H71.2V158.4H71.4667V158.267H71.7333V158.133H72V158H72.1333V157.867H72.4V157.733H72.6667V157.6H72.9333V157.467H73.0667V157.333H73.3333V157.2H73.6V157.067H73.7333V156.933H74V156.8H74.2667V156.667H74.5333V156.533H74.6667V156.4H74.9333V156.267H75.2V156.133H75.4667V156H75.6V155.867H75.8667V155.733H76.1333V155.6H76.4V155.467H76.5333V155.333H76.8V155.2H77.0667V155.067H77.2V154.933H77.4667V154.8H77.7333V154.667H78V154.533H78.1333V154.4H78.4V154.267H78.6667V154.133H78.9333V154H79.0667V153.867H79.3333V153.733H79.6V153.6H79.8667V153.467H80V153.333H80.2667V153.2H80.5333V153.067H80.6667V152.933H80.9333V152.8H81.2V152.667H81.4667V152.533H81.6V152.4H81.8667V152.267H82.1333V152.133H82.4V152H82.5333V151.867H82.8V151.733H83.0667V151.6H83.3333V151.467H83.4667V151.333H83.7333V151.2H84V151.067H84.1333V150.933H84.4V150.8H84.6667V150.667H84.9333V150.533H85.0667V150.4H85.3333V150.267H85.6V150.133H85.8667V150H86V149.867H86.2667V149.733H86.5333V149.6H86.6667V149.467H86.9333V149.333H87.2V149.2H87.4667V149.067H87.6V148.933H87.8667V148.8H88.1333V148.667H88.4V148.533H88.5333V148.4H88.8V148.267H89.0667V148.133H89.3333V148H89.4667V147.867H89.7333V147.733H90V147.6H90.1333V147.467H90.4V147.333H90.6667V147.2H90.9333V147.067H91.0667V146.933H91.3333V146.8H91.6V146.667H91.8667V146.533H92V146.4H92.2667V146.267H92.5333V146.133H92.8V146H92.9333V145.867H93.2V145.733H93.4667V145.6H93.6V145.467H93.8667V145.333H94.1333V145.2H94.4V145.067H94.5333V144.933H94.8V144.8H95.0667V144.667H95.3333V144.533H95.4667V144.4H95.7333V144.267H96V144.133H96.2667V144H96.4V143.867H96.6667V143.733H96.9333V143.6H97.0667V143.467H97.3333V143.333H97.6V143.2H97.8667V143.067H98V142.933H98.2667V142.8H98.5333V142.667H98.8V142.533H98.9333V142.4H99.2V142.267H99.4667V142.133H99.6V142H99.8667V141.867H100.133V141.733H100.4V141.6H100.533V141.467H100.8V141.333H101.067V141.2H101.333V141.067H101.467V140.933H101.733V140.8H102V140.667H102.267V140.533H102.4V140.4H102.667V140.267H102.933V140.133H103.067V140H103.333V139.867H103.6V139.733H103.867V139.6H104V139.467H104.267V139.333H104.533V139.2H104.8V139.067H104.933V138.933H105.2V138.8H105.467V138.667H105.733V138.533H105.867V138.4H106.133V138.267H106.4V138.133H106.533V138H106.8V137.867H107.067V137.733H107.333V137.6H107.467V137.467H107.733V137.333H108V137.2H108.267V137.067H108.4V136.933H108.667V136.8H108.933V136.667H109.067V136.533H109.333V136.4H109.6V136.267H109.867V136.133H110V136H110.267V135.867H110.533V135.733H110.8V135.6H110.933V135.467H111.2V135.333H111.467V135.2H111.733V135.067H111.867V134.933H112.133V134.8H112.4V134.667H112.533V134.533H112.8V134.4H113.067V134.267H113.333V134.133H113.467V134H113.733V133.867H114V133.733H114.267V133.6H114.4V133.467H114.667V133.333H114.933V133.2H115.2V133.067H115.333V132.933H115.6V132.8H115.867V132.667H116V132.533H116.267V132.4H116.533V132.267H116.8V132.133H116.933V132H117.2V131.867H117.467V131.733H117.733V131.6H117.867V131.467H118.133V131.333H118.4V131.2H118.667V131.067H118.8V130.933H119.067V130.8H119.333V130.667H119.467V130.533H119.733V130.4H120V130.267H120.267V130.133H120.4V130H120.667V129.867H120.933V129.733H121.2V129.6H121.333V129.467H121.6V129.333H121.867V129.2H122V129.067H122.267V128.933H122.533V128.8H122.8V128.667H122.933V128.533H123.2V128.4H123.467V128.267H123.733V128.133H123.867V128H124.133V127.867H124.4V127.733H124.667V127.6H124.8V127.467H125.067V127.333H125.333V127.2H125.467V127.067H125.733V126.933H126V126.8H126.267V126.667H126.4V126.533H126.667V126.4H126.933V126.267H127.2V126.133H127.333V126H127.6V125.867H127.867V125.733H128.133V125.6H128.267V125.467H128.533V125.333H128.8V125.2H128.933V125.067H129.2V124.933H129.467V124.8H129.733V124.667H129.867V124.533H130.133V124.4H130.4V124.267H130.667V124.133H130.8V124H131.067V123.867H131.333V123.733H131.6V123.6H131.733V123.467H132V123.333H132.267V123.2H132.4V123.067H132.667V122.933H132.933V122.8H133.2V122.667H133.333V122.533H133.6V122.4H133.867V122.267H134.133V122.133H134.267V122H134.533V121.867H134.8V121.733H134.933V121.6H135.2V121.467H135.467V121.333H135.733V121.2H135.867V121.067H136.133V120.933H136.4V120.8H136.667V120.667H136.8V120.533H137.067V120.4H137.333V120.267H137.6V120.133H137.733V120H138V119.867H138.267V119.733H138.4V119.6H138.667V119.467H138.933V119.333H139.2V119.2H139.333V119.067H139.6V118.933H139.867V118.8H140.133V118.667H140.267V118.533H140.533V118.4H140.667V118.267H140.4V118.133H140.133V118H139.867V117.867H139.733V117.733H139.467V117.6H139.2V117.467H138.933V117.333H138.8V117.2H138.533V117.067H138.267V116.933H138V116.8H137.867V116.667H137.6V116.533H137.333V116.4H137.2V116.267H136.933V116.133H136.667V116H136.4V115.867H136.267V115.733H136V115.6H135.733V115.467H135.467V115.333H135.333V115.2H135.067V115.067H134.8V114.933H134.667V114.8H134.4V114.667H134.133V114.533H133.867V114.4H133.733V114.267H133.467V114.133H133.2V114H132.933V113.867H132.8V113.733H132.533V113.6H132.267V113.467H132V113.333H131.867V113.2H131.6V113.067H131.333V112.933H131.2V112.8H130.933V112.667H130.667V112.533H130.4V112.4H130.267V112.267H130V112.133H129.733V112H129.467V111.867H129.333V111.733H129.067V111.6H128.8V111.467H128.533V111.333H128.4V111.2H128.133V111.067H127.867V110.933H127.733V110.8H127.467V110.667H127.2V110.533H126.933V110.4H126.8V110.267H126.533V110.133H126.267V110H126V109.867H125.867V109.733H125.6V109.6H125.333V109.467H125.2V109.333H124.933V109.2H124.667V109.067H124.4V108.933H124.267V108.8H124V108.667H123.733V108.533H123.467V108.4H123.333V108.267H123.067V108.133H122.8V108H122.533V107.867H122.4V107.733H122.133V107.6H121.867V107.467H121.733V107.333H121.467V107.2H121.2V107.067H120.933V106.933H120.8V106.8H120.533V106.667H120.267V106.533H120V106.4H119.867V106.267H119.6V106.133H119.333V106H119.067V105.867H118.933V105.733H118.667V105.6H118.4V105.467H118.267V105.333H118V105.2H117.733V105.067H117.467V104.933H117.333V104.8H117.067V104.667H116.8V104.533H116.533V104.4H116.4V104.267H116.133V104.133H115.867V104H115.6V103.867H115.467V103.733H115.2V103.6H114.933V103.467H114.8V103.333H114.533V103.2H114.267V103.067H114V102.933H113.867V102.8H113.6V102.667H113.333V102.533H113.067V102.4H112.933V102.267H112.667V102.133H112.4V102H112.267V101.867H112V101.733H111.733V101.6H111.467V101.467H111.333V101.333H111.067V101.2H110.8V101.067H110.533V100.933H110.4V100.8H110.133V100.667H109.867V100.533H109.6V100.4H109.467V100.267H109.2V100.133H108.933V100H108.8V99.8667H108.533V99.7333H108.267V99.6H108V99.4667H107.867V99.3333H107.6V99.2H107.333V99.0667H107.067V98.9333H106.933V98.8H106.667V98.6667H106.4V98.5333H106.133V98.4H106V98.2667H105.733V98.1333H105.467V98H105.333V97.8667H105.067V97.7333H104.8V97.6H104.533V97.4667H104.4V97.3333H104.133V97.2H103.867V97.0667H103.6V96.9333H103.467V96.8H103.2V96.6667H102.933V96.5333H102.667V96.4H102.533V96.2667H102.267V96.1333H102V96H101.867V95.8667H101.6V95.7333H101.333V95.6H101.067V95.4667H100.933V95.3333H100.667V95.2H100.4V95.0667H100.133V94.9333H100V94.8H99.7333V94.6667H99.4667V94.5333H99.3333V94.4H99.0667V94.2667H98.8V94.1333H98.5333V94H98.4V93.8667H98.1333V93.7333H97.8667V93.6H97.6V93.4667H97.4667V93.3333H97.2V93.2H96.9333V93.0667H96.6667V92.9333H96.5333V92.8H96.2667V92.6667H96V92.5333H95.8667V92.4H95.6V92.2667H95.3333V92.1333H95.0667V92H94.9333V91.8667H94.6667V91.7333H94.4V91.6H94.1333V91.4667H94V91.3333H93.7333V91.2H93.4667V91.0667H93.2V90.9333H93.0667V90.8H92.8V90.6667H92.5333V90.5333H92.4V90.4H92.1333V90.2667H91.8667V90.1333H91.6V90H91.4667V89.8667H91.2V89.7333H90.9333V89.6H90.6667V89.4667H90.5333V89.3333H90.2667V89.2H90V89.0667H89.8667V88.9333H89.6V88.8H89.3333V88.6667H89.0667V88.5333H88.9333V88.4H88.6667V88.2667H88.4V88.1333H88.1333V88H88V87.8667H87.7333V87.7333H87.4667V87.6H87.2V87.4667H87.0667V87.3333H86.8V87.2H86.5333V87.0667H86.4V86.9333H86.1333V86.8H85.8667V86.6667H85.6V86.5333H85.4667V86.4H85.2V86.2667H84.9333V86.1333H84.6667V86H84.5333V85.8667H84.2667V85.7333H84V85.6H83.7333V85.4667H83.6V85.3333H83.3333V85.2H83.0667V85.0667H82.9333V84.9333H82.6667V84.8H82.4V84.6667H82.1333V84.5333H82V84.4H81.7333V84.2667H81.4667V84.1333H81.2V84H81.0667V83.8667H80.8V83.7333H80.5333V83.6H80.2667V83.4667H80.1333V83.3333H79.8667V83.2H79.6V83.0667H79.4667V82.9333H79.2V82.8H78.9333V82.6667H78.6667V82.5333H78.5333V82.4H78.2667V82.2667H78V82.1333H77.7333V82H77.6V81.8667H77.3333V81.7333H77.0667V81.6H76.9333V81.4667H76.6667V81.3333H76.4V81.2H76.1333V81.0667H76V80.9333H75.7333V80.8H75.4667V80.6667H75.2V80.5333H75.0667V80.4H74.8V80.2667H74.5333V80.1333H74.2667V80H74.1333V79.8667H73.8667V79.7333H73.6V79.6H73.4667V79.4667H73.2V79.3333H72.9333V79.2H72.6667V79.0667H72.5333V78.9333H72.2667V78.8H72V78.6667H71.7333V78.5333H71.6V78.4H71.3333V78.2667H71.0667V78.1333H70.8V78H70.6667V77.8667H70.4V77.7333H70.1333V77.6H70V77.4667H69.7333V77.3333H69.4667V77.2H69.2V77.0667H69.0667V76.9333H68.8V76.8H68.5333V76.6667H68.2667V76.5333H68.1333V76.4H67.8667V76.2667H67.6V76.1333H67.4667V76H67.2V75.8667H66.9333V75.7333H66.6667V75.6H66.5333V75.4667H66.2667V75.3333H66V75.2H65.7333V75.0667H65.6V74.9333H65.3333V74.8H65.0667V74.6667H64.8V74.5333H64.6667V74.4H64.4V74.2667H64.1333V74.1333H64V74H63.7333V73.8667H63.4667V73.7333H63.2V73.6H63.0667V73.4667H62.8V73.3333H62.5333V73.2H62.2667V73.0667H62.1333V72.9333H61.8667V72.8H61.6V72.6667H61.3333V72.5333H61.2V72.4H60.9333V72.2667H60.6667V72.1333H60.5333V72H60.2667V71.8667H60V71.7333H59.7333V71.6H59.6V71.4667H59.3333V71.3333H59.0667V165.333ZM151.2 112.133V112.267H151.333V112.133H151.6V112H151.867V111.867H152.133V111.733H152.267V111.6H152.533V111.467H152.8V111.333H153.067V111.2H153.2V111.067H153.467V110.933H153.733V110.8H154V110.667H154.133V110.533H154.4V110.4H154.667V110.267H154.8V110.133H155.067V110H155.333V109.867H155.6V109.733H155.733V109.6H156V109.467H156.267V109.333H156.533V109.2H156.667V109.067H156.933V108.933H157.2V108.8H157.467V108.667H157.6V108.533H157.867V108.4H158.133V108.267H158.267V108.133H158.533V108H158.8V107.867H159.067V107.733H159.2V107.6H159.467V107.467H159.733V107.333H160V107.2H160.133V107.067H160.4V106.933H160.667V106.8H160.933V106.667H161.067V106.533H161.333V106.4H161.6V106.267H161.733V106.133H162V106H162.267V105.867H162.533V105.733H162.667V105.6H162.933V105.467H163.2V105.333H163.467V105.2H163.6V105.067H163.867V104.933H164.133V104.8H164.267V104.667H164.533V104.533H164.8V104.4H165.067V104.267H165.2V104.133H165.467V104H165.733V103.867H166V103.733H166.133V103.6H166.4V103.467H166.667V103.333H166.933V103.2H167.067V103.067H167.333V102.933H167.6V102.8H167.733V102.667H168V102.533H168.267V102.4H168.533V102.267H168.667V102.133H168.933V102H169.2V101.867H169.467V101.733H169.6V101.6H169.867V101.467H170.133V101.333H170.4V101.2H170.533V101.067H170.8V100.933H171.067V100.8H171.2V100.667H171.467V100.533H171.733V100.4H172V100.267H172.133V100.133H172.4V100H172.667V99.8667H172.933V99.7333H173.067V99.6H173.333V99.4667H173.6V99.3333H173.867V99.2H174V99.0667H174.267V98.9333H174.533V98.8H174.667V98.6667H174.933V98.5333H175.2V98.4H175.467V98.2667H175.6V98.1333H175.867V98H176.133V97.8667H176.4V97.7333H176.533V97.6H176.8V97.4667H177.067V97.3333H177.2V97.2H177.467V97.0667H177.733V96.9333H178V96.8H178.133V96.6667H178.4V96.5333H178.667V96.4H178.933V96.2667H179.067V96.1333H179.333V96H179.6V95.8667H179.867V95.7333H180V95.6H180.267V95.4667H180.533V95.3333H180.667V95.2H180.933V95.0667H181.2V94.9333H181.467V94.8H181.6V94.6667H181.867V94.5333H182.133V94.4H182.4V94.2667H182.533V94.1333H182.8V94H183.067V93.8667H183.333V93.7333H183.467V93.6H183.733V93.4667H184V93.3333H184.133V93.2H184.4V93.0667H184.667V92.9333H184.933V92.8H185.067V92.6667H185.333V92.5333H185.6V92.4H185.867V92.2667H186V92.1333H186.267V92H186.533V91.8667H186.8V91.7333H186.933V91.6H187.2V91.4667H187.467V91.3333H187.6V91.2H187.867V91.0667H188.133V90.9333H188.4V90.8H188.533V90.6667H188.8V90.5333H189.067V90.4H189.2V90.2667H188.933V90.1333H188.8V90H188.533V89.8667H188.267V89.7333H188V89.6H187.867V89.4667H187.6V89.3333H187.333V89.2H187.067V89.0667H186.933V88.9333H186.667V88.8H186.4V88.6667H186.267V88.5333H186V88.4H185.733V88.2667H185.467V88.1333H185.333V88H185.067V87.8667H184.8V87.7333H184.533V87.6H184.4V87.4667H184.133V87.3333H183.867V87.2H183.6V87.0667H183.467V86.9333H183.2V86.8H182.933V86.6667H182.8V86.5333H182.533V86.4H182.267V86.2667H182V86.1333H181.867V86H181.6V85.8667H181.333V85.7333H181.067V85.6H180.933V85.4667H180.667V85.3333H180.4V85.2H180.267V85.0667H180V84.9333H179.733V84.8H179.467V84.6667H179.333V84.5333H179.067V84.4H178.8V84.2667H178.533V84.1333H178.4V84H178.133V83.8667H177.867V83.7333H177.6V83.6H177.467V83.4667H177.2V83.3333H176.933V83.2H176.8V83.0667H176.533V82.9333H176.267V82.8H176V82.6667H175.867V82.5333H175.6V82.4H175.333V82.2667H175.067V82.1333H174.933V82H174.667V81.8667H174.4V81.7333H174.133V81.6H174V81.4667H173.733V81.3333H173.467V81.2H173.333V81.0667H173.067V80.9333H172.8V80.8H172.533V80.6667H172.4V80.5333H172.133V80.4H171.867V80.2667H171.6V80.1333H171.467V80H171.2V79.8667H170.933V79.7333H170.8V79.6H170.533V79.4667H170.267V79.3333H170V79.2H169.867V79.0667H169.6V78.9333H169.333V78.8H169.067V78.6667H168.933V78.5333H168.667V78.4H168.4V78.2667H168.133V78.1333H168V78H167.733V77.8667H167.467V77.7333H167.333V77.6H167.067V77.4667H166.8V77.3333H166.533V77.2H166.4V77.0667H166.133V76.9333H165.867V76.8H165.6V76.6667H165.467V76.5333H165.2V76.4H164.933V76.2667H164.667V76.1333H164.533V76H164.267V75.8667H164V75.7333H163.867V75.6H163.6V75.4667H163.333V75.3333H163.067V75.2H162.933V75.0667H162.667V74.9333H162.4V74.8H162.133V74.6667H162V74.5333H161.733V74.4H161.467V74.2667H161.2V74.1333H161.067V74H160.8V73.8667H160.533V73.7333H160.4V73.6H160.133V73.4667H159.867V73.3333H159.6V73.2H159.467V73.0667H159.2V72.9333H158.933V72.8H158.667V72.6667H158.533V72.5333H158.267V72.4H158V72.2667H157.867V72.1333H157.6V72H157.333V71.8667H157.067V71.7333H156.933V71.6H156.667V71.4667H156.4V71.3333H156.133V71.2H156V71.0667H155.733V70.9333H155.467V70.8H155.2V70.6667H155.067V70.5333H154.8V70.4H154.533V70.2667H154.4V70.1333H154.133V70H153.867V69.8667H153.6V69.7333H153.467V69.6H153.2V69.4667H152.933V69.3333H152.667V69.2H152.533V69.0667H152.267V68.9333H152V68.8H151.733V68.6667H151.6V68.5333H151.333V68.4H151.067V68.2667H150.933V68.1333H150.8V68.2667H150.667V68.4H150.4V68.5333H150.133V68.6667H149.867V68.8H149.733V68.9333H149.467V69.0667H149.2V69.2H148.933V69.3333H148.8V69.4667H148.533V69.6H148.267V69.7333H148.133V69.8667H147.867V70H147.6V70.1333H147.333V70.2667H147.2V70.4H146.933V70.5333H146.667V70.6667H146.4V70.8H146.267V70.9333H146V71.0667H145.733V71.2H145.6V71.3333H145.333V71.4667H145.067V71.6H144.8V71.7333H144.667V71.8667H144.4V72H144.133V72.1333H143.867V72.2667H143.733V72.4H143.467V72.5333H143.2V72.6667H142.933V72.8H142.8V72.9333H142.533V73.0667H142.267V73.2H142.133V73.3333H141.867V73.4667H141.6V73.6H141.333V73.7333H141.2V73.8667H140.933V74H140.667V74.1333H140.4V74.2667H140.267V74.4H140V74.5333H139.733V74.6667H139.467V74.8H139.333V74.9333H139.067V75.0667H138.8V75.2H138.667V75.3333H138.4V75.4667H138.133V75.6H137.867V75.7333H137.733V75.8667H137.467V76H137.2V76.1333H136.933V76.2667H136.8V76.4H136.533V76.5333H136.267V76.6667H136V76.8H135.867V76.9333H135.6V77.0667H135.333V77.2H135.2V77.3333H134.933V77.4667H134.667V77.6H134.4V77.7333H134.267V77.8667H134V78H133.733V78.1333H133.467V78.2667H133.333V78.4H133.067V78.5333H132.8V78.6667H132.533V78.8H132.4V78.9333H132.133V79.0667H131.867V79.2H131.733V79.3333H131.467V79.4667H131.2V79.6H130.933V79.7333H130.8V79.8667H130.533V80H130.267V80.1333H130V80.2667H129.867V80.4H129.6V80.5333H129.333V80.6667H129.2V80.8H128.933V80.9333H128.667V81.0667H128.4V81.2H128.267V81.3333H128V81.4667H127.733V81.6H127.467V81.7333H127.333V81.8667H127.067V82H126.8V82.1333H126.533V82.2667H126.4V82.4H126.133V82.5333H125.867V82.6667H125.733V82.8H125.467V82.9333H125.2V83.0667H124.933V83.2H124.8V83.3333H124.533V83.4667H124.267V83.6H124V83.7333H123.867V83.8667H123.6V84H123.333V84.1333H123.067V84.2667H122.933V84.4H122.667V84.5333H122.4V84.6667H122.267V84.8H122V84.9333H121.733V85.0667H121.467V85.2H121.333V85.3333H121.067V85.4667H120.8V85.6H120.533V85.7333H120.4V85.8667H120.133V86H119.867V86.1333H119.6V86.2667H119.467V86.4H119.2V86.5333H118.933V86.6667H118.8V86.8H118.533V86.9333H118.267V87.0667H118V87.2H117.867V87.3333H117.6V87.4667H117.333V87.6H117.067V87.7333H116.933V87.8667H116.667V88H116.4V88.1333H116.267V88.2667H116V88.4H115.733V88.5333H115.467V88.6667H115.333V88.8H115.067V88.9333H114.8V89.0667H114.533V89.2H114.4V89.3333H114.133V89.4667H113.867V89.6H113.6V89.7333H113.467V89.8667H113.2V90H112.933V90.1333H113.067V90.2667H113.333V90.4H113.6V90.5333H113.733V90.6667H114V90.8H114.267V90.9333H114.4V91.0667H114.667V91.2H114.933V91.3333H115.2V91.4667H115.333V91.6H115.6V91.7333H115.867V91.8667H116.133V92H116.267V92.1333H116.533V92.2667H116.8V92.4H117.067V92.5333H117.2V92.6667H117.467V92.8H117.733V92.9333H117.867V93.0667H118.133V93.2H118.4V93.3333H118.667V93.4667H118.8V93.6H119.067V93.7333H119.333V93.8667H119.6V94H119.733V94.1333H120V94.2667H120.267V94.4H120.4V94.5333H120.667V94.6667H120.933V94.8H121.2V94.9333H121.333V95.0667H121.6V95.2H121.867V95.3333H122.133V95.4667H122.267V95.6H122.533V95.7333H122.8V95.8667H123.067V96H123.2V96.1333H123.467V96.2667H123.733V96.4H123.867V96.5333H124.133V96.6667H124.4V96.8H124.667V96.9333H124.8V97.0667H125.067V97.2H125.333V97.3333H125.6V97.4667H125.733V97.6H126V97.7333H126.267V97.8667H126.533V98H126.667V98.1333H126.933V98.2667H127.2V98.4H127.333V98.5333H127.6V98.6667H127.867V98.8H128.133V98.9333H128.267V99.0667H128.533V99.2H128.8V99.3333H129.067V99.4667H129.2V99.6H129.467V99.7333H129.733V99.8667H129.867V100H130.133V100.133H130.4V100.267H130.667V100.4H130.8V100.533H131.067V100.667H131.333V100.8H131.6V100.933H131.733V101.067H132V101.2H132.267V101.333H132.533V101.467H132.667V101.6H132.933V101.733H133.2V101.867H133.333V102H133.6V102.133H133.867V102.267H134.133V102.4H134.267V102.533H134.533V102.667H134.8V102.8H135.067V102.933H135.2V103.067H135.467V103.2H135.733V103.333H136V103.467H136.133V103.6H136.4V103.733H136.667V103.867H136.8V104H137.067V104.133H137.333V104.267H137.6V104.4H137.733V104.533H138V104.667H138.267V104.8H138.533V104.933H138.667V105.067H138.933V105.2H139.2V105.333H139.467V105.467H139.6V105.6H139.867V105.733H140.133V105.867H140.267V106H140.533V106.133H140.8V106.267H141.067V106.4H141.2V106.533H141.467V106.667H141.733V106.8H142V106.933H142.133V107.067H142.4V107.2H142.667V107.333H142.8V107.467H143.067V107.6H143.333V107.733H143.6V107.867H143.733V108H144V108.133H144.267V108.267H144.533V108.4H144.667V108.533H144.933V108.667H145.2V108.8H145.467V108.933H145.6V109.067H145.867V109.2H146.133V109.333H146.267V109.467H146.533V109.6H146.8V109.733H147.067V109.867H147.2V110H147.467V110.133H147.733V110.267H148V110.4H148.133V110.533H148.4V110.667H148.667V110.8H148.933V110.933H149.067V111.067H149.333V111.2H149.6V111.333H149.733V111.467H150V111.6H150.267V111.733H150.533V111.867H150.667V112H150.933V112.133H151.2ZM48.2667 108.8V108.933H48.5333V65.2H48.4V65.0667H48.2667V64.9333H48V64.8H47.7333V64.6667H47.6V64.5333H47.3333V64.4H47.0667V64.2667H46.8V64.1333H46.6667V64H46.4V63.8667H46.1333V63.7333H45.8667V63.6H45.7333V63.4667H45.4667V63.3333H45.2V63.2H45.0667V63.0667H44.8V62.9333H44.5333V62.8H44.2667V62.6667H44.1333V62.5333H43.8667V62.4H43.6V62.2667H43.3333V62.1333H43.2V62H42.9333V61.8667H42.6667V61.7333H42.4V61.6H42.2667V61.4667H42V61.3333H41.7333V61.2H41.6V61.0667H41.3333V60.9333H41.0667V60.8H40.8V60.6667H40.6667V60.5333H40.4V60.4H40.1333V60.2667H39.8667V60.1333H39.7333V60H39.4667V59.8667H39.2V59.7333H38.9333V59.6H38.8V59.4667H38.5333V59.3333H38.2667V59.2H38.1333V59.0667H37.8667V58.9333H37.6V58.8H37.3333V58.6667H37.2V58.5333H36.9333V58.4H36.6667V58.2667H36.4V58.1333H36.2667V58H36V57.8667H35.7333V57.7333H35.4667V57.6H35.3333V57.4667H35.0667V57.3333H34.8V57.2H34.6667V57.0667H34.4V56.9333H34.1333V56.8H33.8667V56.6667H33.7333V56.5333H33.4667V56.4H33.2V56.2667H32.9333V56.1333H32.8V56H32.5333V55.8667H32.2667V55.7333H32.1333V55.6H31.8667V55.4667H31.6V55.3333H31.3333V55.2H31.2V55.0667H30.9333V54.9333H30.6667V54.8H30.4V54.6667H30.2667V54.5333H30V54.4H29.7333V54.2667H29.4667V54.1333H29.3333V54H29.0667V53.8667H28.8V53.7333H28.6667V53.6H28.4V53.4667H28.1333V53.3333H27.8667V53.2H27.7333V53.0667H27.4667V52.9333H27.2V52.8H26.9333V52.6667H26.8V52.5333H26.5333V52.4H26.2667V52.2667H26V52.1333H25.8667V52H25.6V51.8667H25.3333V51.7333H25.2V51.6H24.9333V51.4667H24.6667V51.3333H24.4V51.2H24.2667V51.0667H24V50.9333H23.7333V50.8H23.4667V50.6667H23.3333V50.5333H23.0667V50.4H22.8V50.2667H22.5333V50.1333H22.4V50H22.1333V49.8667H21.8667V49.7333H21.7333V49.6H21.4667V49.4667H21.2V49.3333H20.9333V49.2H20.8V49.0667H20.5333V48.9333H20.2667V48.8H20V48.6667H19.8667V48.5333H19.6V48.4H19.3333V48.2667H19.2V48.1333H18.9333V48H18.6667V47.8667H18.4V47.7333H18.2667V47.6H18V47.4667H17.7333V47.3333H17.4667V47.2H17.3333V47.0667H17.0667V46.9333H16.8V46.8H16.5333V46.6667H16.4V46.5333H16.1333V46.4H15.8667V46.2667H15.7333V46.1333H15.4667V46H15.2V45.8667H14.9333V45.7333H14.8V45.6H14.5333V45.4667H14.2667V45.3333H14V45.2H13.8667V45.0667H13.6V44.9333H13.3333V44.8H13.0667V44.6667H12.9333V44.5333H12.6667V44.4H12.4V44.2667H12.2667V44.1333H12V44H11.7333V43.8667H11.4667V43.7333H11.3333V43.6H11.0667V43.4667H10.8V43.3333H10.5333V87.0667H10.6667V87.2H10.9333V87.3333H11.0667V87.4667H11.3333V87.6H11.6V87.7333H11.8667V87.8667H12V88H12.2667V88.1333H12.5333V88.2667H12.8V88.4H12.9333V88.5333H13.2V88.6667H13.4667V88.8H13.7333V88.9333H13.8667V89.0667H14.1333V89.2H14.4V89.3333H14.5333V89.4667H14.8V89.6H15.0667V89.7333H15.3333V89.8667H15.4667V90H15.7333V90.1333H16V90.2667H16.2667V90.4H16.4V90.5333H16.6667V90.6667H16.9333V90.8H17.2V90.9333H17.3333V91.0667H17.6V91.2H17.8667V91.3333H18V91.4667H18.2667V91.6H18.5333V91.7333H18.8V91.8667H18.9333V92H19.2V92.1333H19.4667V92.2667H19.7333V92.4H19.8667V92.5333H20.1333V92.6667H20.4V92.8H20.5333V92.9333H20.8V93.0667H21.0667V93.2H21.3333V93.3333H21.4667V93.4667H21.7333V93.6H22V93.7333H22.2667V93.8667H22.4V94H22.6667V94.1333H22.9333V94.2667H23.2V94.4H23.3333V94.5333H23.6V94.6667H23.8667V94.8H24V94.9333H24.2667V95.0667H24.5333V95.2H24.8V95.3333H24.9333V95.4667H25.2V95.6H25.4667V95.7333H25.7333V95.8667H25.8667V96H26.1333V96.1333H26.4V96.2667H26.6667V96.4H26.8V96.5333H27.0667V96.6667H27.3333V96.8H27.4667V96.9333H27.7333V97.0667H28V97.2H28.2667V97.3333H28.4V97.4667H28.6667V97.6H28.9333V97.7333H29.2V97.8667H29.3333V98H29.6V98.1333H29.8667V98.2667H30.1333V98.4H30.2667V98.5333H30.5333V98.6667H30.8V98.8H30.9333V98.9333H31.2V99.0667H31.4667V99.2H31.7333V99.3333H31.8667V99.4667H32.1333V99.6H32.4V99.7333H32.6667V99.8667H32.8V100H33.0667V100.133H33.3333V100.267H33.4667V100.4H33.7333V100.533H34V100.667H34.2667V100.8H34.4V100.933H34.6667V101.067H34.9333V101.2H35.2V101.333H35.3333V101.467H35.6V101.6H35.8667V101.733H36.1333V101.867H36.2667V102H36.5333V102.133H36.8V102.267H36.9333V102.4H37.2V102.533H37.4667V102.667H37.7333V102.8H37.8667V102.933H38.1333V103.067H38.4V103.2H38.6667V103.333H38.8V103.467H39.0667V103.6H39.3333V103.733H39.6V103.867H39.7333V104H40V104.133H40.2667V104.267H40.4V104.4H40.6667V104.533H40.9333V104.667H41.2V104.8H41.3333V104.933H41.6V105.067H41.8667V105.2H42.1333V105.333H42.2667V105.467H42.5333V105.6H42.8V105.733H43.0667V105.867H43.2V106H43.4667V106.133H43.7333V106.267H43.8667V106.4H44.1333V106.533H44.4V106.667H44.6667V106.8H44.8V106.933H45.0667V107.067H45.3333V107.2H45.6V107.333H45.7333V107.467H46V107.6H46.2667V107.733H46.4V107.867H46.6667V108H46.9333V108.133H47.2V108.267H47.3333V108.4H47.6V108.533H47.8667V108.667H48.1333V108.8H48.2667ZM96.9333 80.8V80.9333H97.0667V37.0667H96.8V36.9333H96.6667V36.8H96.4V36.6667H96.1333V36.5333H95.8667V36.4H95.7333V36.2667H95.4667V36.1333H95.2V36H94.9333V35.8667H94.8V35.7333H94.5333V35.6H94.2667V35.4667H94V35.3333H93.8667V35.2H93.6V35.0667H93.3333V34.9333H93.2V34.8H92.9333V34.6667H92.6667V34.5333H92.4V34.4H92.2667V34.2667H92V34.1333H91.7333V34H91.4667V33.8667H91.3333V33.7333H91.0667V33.6H90.8V33.4667H90.6667V33.3333H90.4V33.2H90.1333V33.0667H89.8667V32.9333H89.7333V32.8H89.4667V32.6667H89.2V32.5333H88.9333V32.4H88.8V32.2667H88.5333V32.1333H88.2667V32H88V31.8667H87.8667V31.7333H87.6V31.6H87.3333V31.4667H87.2V31.3333H86.9333V31.2H86.6667V31.0667H86.4V30.9333H86.2667V30.8H86V30.6667H85.7333V30.5333H85.4667V30.4H85.3333V30.2667H85.0667V30.1333H84.8V30H84.5333V29.8667H84.4V29.7333H84.1333V29.6H83.8667V29.4667H83.7333V29.3333H83.4667V29.2H83.2V29.0667H82.9333V28.9333H82.8V28.8H82.5333V28.6667H82.2667V28.5333H82V28.4H81.8667V28.2667H81.6V28.1333H81.3333V28H81.0667V27.8667H80.9333V27.7333H80.6667V27.6H80.4V27.4667H80.2667V27.3333H80V27.2H79.7333V27.0667H79.4667V26.9333H79.3333V26.8H79.0667V26.6667H78.8V26.5333H78.5333V26.4H78.4V26.2667H78.1333V26.1333H77.8667V26H77.7333V25.8667H77.4667V25.7333H77.2V25.6H76.9333V25.4667H76.8V25.3333H76.5333V25.2H76.2667V25.0667H76V24.9333H75.8667V24.8H75.6V24.6667H75.3333V24.5333H75.0667V24.4H74.9333V24.2667H74.6667V24.1333H74.4V24H74.2667V23.8667H74V23.7333H73.7333V23.6H73.4667V23.4667H73.3333V23.3333H73.0667V23.2H72.8V23.0667H72.5333V22.9333H72.4V22.8H72.1333V22.6667H71.8667V22.5333H71.6V22.4H71.4667V22.2667H71.2V22.1333H70.9333V22H70.8V21.8667H70.5333V21.7333H70.2667V21.6H70V21.4667H69.8667V21.3333H69.6V21.2H69.3333V21.0667H69.0667V20.9333H68.9333V20.8H68.6667V20.6667H68.4V20.5333H68.1333V20.4H68V20.2667H67.7333V20.1333H67.4667V20H67.3333V19.8667H67.0667V19.7333H66.8V19.6H66.5333V19.4667H66.4V19.3333H66.1333V19.2H65.8667V19.0667H65.6V18.9333H65.4667V18.8H65.2V18.6667H64.9333V18.5333H64.8V18.4H64.5333V18.2667H64.2667V18.1333H64V18H63.8667V17.8667H63.6V17.7333H63.3333V17.6H63.0667V17.4667H62.9333V17.3333H62.6667V17.2H62.4V17.0667H62.1333V16.9333H62V16.8H61.7333V16.6667H61.4667V16.5333H61.3333V16.4H61.0667V16.2667H60.8V16.1333H60.5333V16H60.4V15.8667H60.1333V15.7333H59.8667V15.6H59.6V15.4667H59.4667V15.3333H59.2V15.2H58.9333V15.0667H58.6667V14.9333H58.5333V14.8H58.2667V14.6667H58V14.5333H57.8667V14.4H57.6V14.2667H57.3333V14.1333H57.0667V14H56.9333V13.8667H56.6667V13.7333H56.4V13.6H56.1333V13.4667H56V13.3333H55.7333V13.2H55.4667V13.0667H55.2V12.9333H55.0667V12.8H54.8V12.6667H54.5333V12.5333H54.4V12.4H54.1333V12.2667H53.8667V12.1333H53.6V12.2667H53.4667V12.4H53.2V12.5333H52.9333V12.6667H52.6667V12.8H52.5333V12.9333H52.2667V13.0667H52V13.2H51.7333V13.3333H51.6V13.4667H51.3333V13.6H51.0667V13.7333H50.8V13.8667H50.6667V14H50.4V14.1333H50.1333V14.2667H50V14.4H49.7333V14.5333H49.4667V14.6667H49.2V14.8H49.0667V14.9333H48.8V15.0667H48.5333V15.2H48.2667V15.3333H48.1333V15.4667H47.8667V15.6H47.6V15.7333H47.4667V15.8667H47.2V16H46.9333V16.1333H46.6667V16.2667H46.5333V16.4H46.2667V16.5333H46V16.6667H45.7333V16.8H45.6V16.9333H45.3333V17.0667H45.0667V17.2H44.8V17.3333H44.6667V17.4667H44.4V17.6H44.1333V17.7333H44V17.8667H43.7333V18H43.4667V18.1333H43.2V18.2667H43.0667V18.4H42.8V18.5333H42.5333V18.6667H42.2667V18.8H42.1333V18.9333H41.8667V19.0667H41.6V19.2H41.3333V19.3333H41.2V19.4667H40.9333V19.6H40.6667V19.7333H40.5333V19.8667H40.2667V20H40V20.1333H39.7333V20.2667H39.6V20.4H39.3333V20.5333H39.0667V20.6667H38.8V20.8H38.6667V20.9333H38.4V21.0667H38.1333V21.2H38V21.3333H37.7333V21.4667H37.4667V21.6H37.2V21.7333H37.0667V21.8667H36.8V22H36.5333V22.1333H36.2667V22.2667H36.1333V22.4H35.8667V22.5333H35.6V22.6667H35.3333V22.8H35.2V22.9333H34.9333V23.0667H34.6667V23.2H34.5333V23.3333H34.2667V23.4667H34V23.6H33.7333V23.7333H33.6V23.8667H33.3333V24H33.0667V24.1333H32.8V24.2667H32.6667V24.4H32.4V24.5333H32.1333V24.6667H31.8667V24.8H31.7333V24.9333H31.4667V25.0667H31.2V25.2H31.0667V25.3333H30.8V25.4667H30.5333V25.6H30.2667V25.7333H30.1333V25.8667H29.8667V26H29.6V26.1333H29.3333V26.2667H29.2V26.4H28.9333V26.5333H28.6667V26.6667H28.4V26.8H28.2667V26.9333H28V27.0667H27.7333V27.2H27.6V27.3333H27.3333V27.4667H27.0667V27.6H26.8V27.7333H26.6667V27.8667H26.4V28H26.1333V28.1333H25.8667V28.2667H25.7333V28.4H25.4667V28.5333H25.2V28.6667H25.0667V28.8H24.8V28.9333H24.5333V29.0667H24.2667V29.2H24.1333V29.3333H23.8667V29.4667H23.6V29.6H23.3333V29.7333H23.2V29.8667H22.9333V30H22.6667V30.1333H22.4V30.2667H22.2667V30.4H22V30.5333H21.7333V30.6667H21.6V30.8H21.3333V30.9333H21.0667V31.0667H20.8V31.2H20.6667V31.3333H20.4V31.4667H20.1333V31.6H19.8667V31.7333H19.7333V31.8667H19.4667V32H19.2V32.1333H18.9333V32.2667H18.8V32.4H18.5333V32.5333H18.2667V32.6667H18.1333V32.8H17.8667V32.9333H17.6V33.0667H17.3333V33.2H17.2V33.3333H16.9333V33.4667H16.6667V33.6H16.4V33.7333H16.2667V33.8667H16V34H15.8667V34.1333H16.1333V34.2667H16.2667V34.4H16.5333V34.5333H16.8V34.6667H17.0667V34.8H17.2V34.9333H17.4667V35.0667H17.7333V35.2H17.8667V35.3333H18.1333V35.4667H18.4V35.6H18.6667V35.7333H18.8V35.8667H19.0667V36H19.3333V36.1333H19.6V36.2667H19.7333V36.4H20V36.5333H20.2667V36.6667H20.5333V36.8H20.6667V36.9333H20.9333V37.0667H21.2V37.2H21.3333V37.3333H21.6V37.4667H21.8667V37.6H22.1333V37.7333H22.2667V37.8667H22.5333V38H22.8V38.1333H23.0667V38.2667H23.2V38.4H23.4667V38.5333H23.7333V38.6667H24V38.8H24.1333V38.9333H24.4V39.0667H24.6667V39.2H24.8V39.3333H25.0667V39.4667H25.3333V39.6H25.6V39.7333H25.7333V39.8667H26V40H26.2667V40.1333H26.5333V40.2667H26.6667V40.4H26.9333V40.5333H27.2V40.6667H27.3333V40.8H27.6V40.9333H27.8667V41.0667H28.1333V41.2H28.2667V41.3333H28.5333V41.4667H28.8V41.6H29.0667V41.7333H29.2V41.8667H29.4667V42H29.7333V42.1333H30V42.2667H30.1333V42.4H30.4V42.5333H30.6667V42.6667H30.8V42.8H31.0667V42.9333H31.3333V43.0667H31.6V43.2H31.7333V43.3333H32V43.4667H32.2667V43.6H32.5333V43.7333H32.6667V43.8667H32.9333V44H33.2V44.1333H33.4667V44.2667H33.6V44.4H33.8667V44.5333H34.1333V44.6667H34.2667V44.8H34.5333V44.9333H34.8V45.0667H35.0667V45.2H35.2V45.3333H35.4667V45.4667H35.7333V45.6H36V45.7333H36.1333V45.8667H36.4V46H36.6667V46.1333H36.9333V46.2667H37.0667V46.4H37.3333V46.5333H37.6V46.6667H37.7333V46.8H38V46.9333H38.2667V47.0667H38.5333V47.2H38.6667V47.3333H38.9333V47.4667H39.2V47.6H39.4667V47.7333H39.6V47.8667H39.8667V48H40.1333V48.1333H40.2667V48.2667H40.5333V48.4H40.8V48.5333H41.0667V48.6667H41.2V48.8H41.4667V48.9333H41.7333V49.0667H42V49.2H42.1333V49.3333H42.4V49.4667H42.6667V49.6H42.9333V49.7333H43.0667V49.8667H43.3333V50H43.6V50.1333H43.7333V50.2667H44V50.4H44.2667V50.5333H44.5333V50.6667H44.6667V50.8H44.9333V50.9333H45.2V51.0667H45.4667V51.2H45.6V51.3333H45.8667V51.4667H46.1333V51.6H46.4V51.7333H46.5333V51.8667H46.8V52H47.0667V52.1333H47.2V52.2667H47.4667V52.4H47.7333V52.5333H48V52.6667H48.1333V52.8H48.4V52.9333H48.6667V53.0667H48.9333V53.2H49.0667V53.3333H49.3333V53.4667H49.6V53.6H49.7333V53.7333H50V53.8667H50.2667V54H50.5333V54.1333H50.6667V54.2667H50.9333V54.4H51.2V54.5333H51.4667V54.6667H51.6V54.8H51.8667V54.9333H52.1333V55.0667H52.4V55.2H52.5333V55.3333H52.8V55.4667H53.0667V55.6H53.2V55.7333H53.4667V55.8667H53.7333V56H54V56.1333H54.1333V56.2667H54.4V56.4H54.6667V56.5333H54.9333V56.6667H55.0667V56.8H55.3333V56.9333H55.6V57.0667H55.8667V57.2H56V57.3333H56.2667V57.4667H56.5333V57.6H56.6667V57.7333H56.9333V57.8667H57.2V58H57.4667V58.1333H57.6V58.2667H57.8667V58.4H58.1333V58.5333H58.4V58.6667H58.5333V58.8H58.8V58.9333H59.0667V59.0667H59.3333V59.2H59.4667V59.3333H59.7333V59.4667H60V59.6H60.1333V59.7333H60.4V59.8667H60.6667V60H60.9333V60.1333H61.0667V60.2667H61.3333V60.4H61.6V60.5333H61.8667V60.6667H62V60.8H62.2667V60.9333H62.5333V61.0667H62.6667V61.2H62.9333V61.3333H63.2V61.4667H63.4667V61.6H63.6V61.7333H63.8667V61.8667H64.1333V62H64.4V62.1333H64.5333V62.2667H64.8V62.4H65.0667V62.5333H65.3333V62.6667H65.4667V62.8H65.7333V62.9333H66V63.0667H66.1333V63.2H66.4V63.3333H66.6667V63.4667H66.9333V63.6H67.0667V63.7333H67.3333V63.8667H67.6V64H67.8667V64.1333H68V64.2667H68.2667V64.4H68.5333V64.5333H68.8V64.6667H68.9333V64.8H69.2V64.9333H69.4667V65.0667H69.6V65.2H69.8667V65.3333H70.1333V65.4667H70.4V65.6H70.5333V65.7333H70.8V65.8667H71.0667V66H71.3333V66.1333H71.4667V66.2667H71.7333V66.4H72V66.5333H72.2667V66.6667H72.4V66.8H72.6667V66.9333H72.9333V67.0667H73.0667V67.2H73.3333V67.3333H73.6V67.4667H73.8667V67.6H74V67.7333H74.2667V67.8667H74.5333V68H74.8V68.1333H74.9333V68.2667H75.2V68.4H75.4667V68.5333H75.6V68.6667H75.8667V68.8H76.1333V68.9333H76.4V69.0667H76.5333V69.2H76.8V69.3333H77.0667V69.4667H77.3333V69.6H77.4667V69.7333H77.7333V69.8667H78V70H78.2667V70.1333H78.4V70.2667H78.6667V70.4H78.9333V70.5333H79.0667V70.6667H79.3333V70.8H79.6V70.9333H79.8667V71.0667H80V71.2H80.2667V71.3333H80.5333V71.4667H80.8V71.6H80.9333V71.7333H81.2V71.8667H81.4667V72H81.7333V72.1333H81.8667V72.2667H82.1333V72.4H82.4V72.5333H82.5333V72.6667H82.8V72.8H83.0667V72.9333H83.3333V73.0667H83.4667V73.2H83.7333V73.3333H84V73.4667H84.2667V73.6H84.4V73.7333H84.6667V73.8667H84.9333V74H85.0667V74.1333H85.3333V74.2667H85.6V74.4H85.8667V74.5333H86V74.6667H86.2667V74.8H86.5333V74.9333H86.8V75.0667H86.9333V75.2H87.2V75.3333H87.4667V75.4667H87.7333V75.6H87.8667V75.7333H88.1333V75.8667H88.4V76H88.5333V76.1333H88.8V76.2667H89.0667V76.4H89.3333V76.5333H89.4667V76.6667H89.7333V76.8H90V76.9333H90.2667V77.0667H90.4V77.2H90.6667V77.3333H90.9333V77.4667H91.2V77.6H91.3333V77.7333H91.6V77.8667H91.8667V78H92V78.1333H92.2667V78.2667H92.5333V78.4H92.8V78.5333H92.9333V78.6667H93.2V78.8H93.4667V78.9333H93.7333V79.0667H93.8667V79.2H94.1333V79.3333H94.4V79.4667H94.6667V79.6H94.8V79.7333H95.0667V79.8667H95.3333V80H95.4667V80.1333H95.7333V80.2667H96V80.4H96.2667V80.5333H96.4V80.6667H96.6667V80.8"
        fill="url(#paint0_linear_10_11)" />
    <defs>
        <linearGradient id="paint0_linear_10_11" x1="152.183" y1="23.924" x2="52.4351" y2="212.336"
            gradientUnits="userSpaceOnUse">
            <stop stop-color="#75D1D8" />
            <stop offset="0.5" stop-color="#535BB3" />
            <stop offset="1" stop-color="#D9058D" />
        </linearGradient>
    </defs>
</svg>